<svg width="19" height="19" viewBox="0 0 19 19" fill="none" xmlns="http://www.w3.org/2000/svg">
<path d="M18.7808 17.7193L14.3041 13.2426C15.524 11.7505 16.1239 9.84666 15.9795 7.92476C15.8351 6.00287 14.9575 4.20999 13.5283 2.91698C12.099 1.62398 10.2275 0.929762 8.3008 0.977935C6.37409 1.02611 4.5396 1.81298 3.17678 3.1758C1.81396 4.53862 1.02709 6.37311 0.978912 8.29982C0.930738 10.2265 1.62495 12.0981 2.91796 13.5273C4.21097 14.9565 6.00384 15.8341 7.92574 15.9785C9.84764 16.1229 11.7515 15.5231 13.2436 14.3031L17.7203 18.7798C17.8618 18.9165 18.0512 18.9921 18.2479 18.9903C18.4445 18.9886 18.6326 18.9098 18.7717 18.7707C18.9107 18.6317 18.9896 18.4435 18.9913 18.2469C18.993 18.0502 18.9174 17.8608 18.7808 17.7193ZM8.50057 14.4996C7.31388 14.4996 6.15384 14.1477 5.16715 13.4884C4.18045 12.8291 3.41142 11.892 2.95729 10.7957C2.50317 9.69934 2.38435 8.49294 2.61586 7.32905C2.84737 6.16516 3.41881 5.09607 4.25793 4.25695C5.09704 3.41784 6.16614 2.84639 7.33003 2.61488C8.49391 2.38337 9.70031 2.50219 10.7967 2.95631C11.893 3.41044 12.8301 4.17948 13.4894 5.16617C14.1487 6.15287 14.5006 7.3129 14.5006 8.49959C14.4988 10.0903 13.8661 11.6154 12.7412 12.7403C11.6164 13.8651 10.0913 14.4978 8.50057 14.4996Z" fill="#0D0C0E"/>
</svg>
