<svg width="48" height="48" viewBox="0 0 48 48" fill="none" xmlns="http://www.w3.org/2000/svg">
<rect opacity="0.05" width="48" height="48" fill="#0D0C0E"/>
<circle cx="24" cy="24" r="17" fill="white"/>
<path d="M32.7808 31.7193L28.3041 27.2426C29.524 25.7505 30.1239 23.8467 29.9795 21.9248C29.8351 20.0029 28.9575 18.21 27.5283 16.917C26.099 15.624 24.2275 14.9298 22.3008 14.9779C20.3741 15.0261 18.5396 15.813 17.1768 17.1758C15.814 18.5386 15.0271 20.3731 14.9789 22.2998C14.9307 24.2265 15.625 26.0981 16.918 27.5273C18.211 28.9565 20.0038 29.8341 21.9257 29.9785C23.8476 30.1229 25.7515 29.5231 27.2436 28.3031L31.7203 32.7798C31.8618 32.9165 32.0512 32.9921 32.2479 32.9903C32.4445 32.9886 32.6326 32.9098 32.7717 32.7707C32.9107 32.6317 32.9896 32.4435 32.9913 32.2469C32.993 32.0502 32.9174 31.8608 32.7808 31.7193ZM22.5006 28.4996C21.3139 28.4996 20.1538 28.1477 19.1671 27.4884C18.1805 26.8291 17.4114 25.892 16.9573 24.7957C16.5032 23.6993 16.3843 22.4929 16.6159 21.3291C16.8474 20.1652 17.4188 19.0961 18.2579 18.257C19.097 17.4178 20.1661 16.8464 21.33 16.6149C22.4939 16.3834 23.7003 16.5022 24.7967 16.9563C25.893 17.4104 26.8301 18.1795 27.4894 19.1662C28.1487 20.1529 28.5006 21.3129 28.5006 22.4996C28.4988 24.0903 27.8661 25.6154 26.7412 26.7403C25.6164 27.8651 24.0913 28.4978 22.5006 28.4996Z" fill="#0D0C0E"/>
</svg>
