<?xml version="1.0" encoding="UTF-8" standalone="no"?>
<svg xmlns="http://www.w3.org/2000/svg" viewBox="0 0 59.59 57.1"><title>icon</title><g style="isolation:isolate"><path d="M.3,23.6H40.22A11.43,11.43,0,0,0,35.56,17c-2.29-1.6-5.27-2.2-8.84-2.2a20.18,20.18,0,0,0-6.86,1.1A20.4,20.4,0,0,0,14,19.6L4,9C9.34,3,17.08,0,27.41,0A36.27,36.27,0,0,1,44.3,3.7,27.49,27.49,0,0,1,55.62,13.9a27.77,27.77,0,0,1,4,14.8,27.91,27.91,0,0,1-3.87,14.6A26.49,26.49,0,0,1,44.89,53.4,32.85,32.85,0,0,1,29.4,57.1a32.06,32.06,0,0,1-14.9-3.4A26.78,26.78,0,0,1,3.87,43.8,29.3,29.3,0,0,1,0,28.4Q0,28.25.3,23.6ZM36.75,40.8a11.29,11.29,0,0,0,3.77-6.9H18.08a11.24,11.24,0,0,0,3.77,6.9,11,11,0,0,0,7.45,2.5A11,11,0,0,0,36.75,40.8Z" style="fill:#efd430"/></g></svg>