<?xml version="1.0" encoding="UTF-8" standalone="no"?>
<svg xmlns:dc="http://purl.org/dc/elements/1.1/" xmlns:cc="http://creativecommons.org/ns#" xmlns:rdf="http://www.w3.org/1999/02/22-rdf-syntax-ns#" xmlns:svg="http://www.w3.org/2000/svg" xmlns="http://www.w3.org/2000/svg" xmlns:sodipodi="http://sodipodi.sourceforge.net/DTD/sodipodi-0.dtd" xmlns:inkscape="http://www.inkscape.org/namespaces/inkscape" version="1.1" id="aone" x="0px" y="0px" viewBox="0 0 391.7 97.5" style="enable-background:new 0 0 391.7 97.5;" xml:space="preserve" sodipodi:docname="logo.svg" inkscape:version="0.92.4 (5da689c313, 2019-01-14)"><metadata id="metadata3796"><rdf:RDF><cc:Work rdf:about=""><dc:format>image/svg+xml</dc:format><dc:type rdf:resource="http://purl.org/dc/dcmitype/StillImage"/><dc:title/></cc:Work></rdf:RDF></metadata><defs id="defs3794"/><sodipodi:namedview pagecolor="#ffffff" bordercolor="#666666" borderopacity="1" objecttolerance="10" gridtolerance="10" guidetolerance="10" inkscape:pageopacity="0" inkscape:pageshadow="2" inkscape:window-width="1920" inkscape:window-height="1017" id="namedview3792" showgrid="false" inkscape:zoom="6.3724454" inkscape:cx="46.517325" inkscape:cy="48.086252" inkscape:window-x="-8" inkscape:window-y="-8" inkscape:window-maximized="1" inkscape:current-layer="aone"><inkscape:grid type="xygrid" id="grid3810"/></sodipodi:namedview>
<style type="text/css" id="style">
	.st0{enable-background:new;}
	.st1{fill:#EFD430;}
</style>
<g id="Layer_1_2_" transform="matrix(0.99320309,0,0,1,2.6555504,0)">
	<g id="Layer_1_1_">
		<g class="st0" id="g3787" style="enable-background:new">
			<path class="st1" d="M -1.4927648,44.3 H 38.707239 c -0.8,-2.9 -2.4,-5 -4.7,-6.6 -2.3,-1.6 -5.3,-2.2 -8.9,-2.2 -2.7,0 -4.9,0.4 -6.9,1.1 -1.9,0.7 -3.9,2 -5.9,3.7 L 2.2072348,29.7 c 5.400004,-6 13.2000042,-9 23.6000042,-9 6.5,0 12.1,1.2 17,3.7 4.9,2.5 8.7,5.8 11.4,10.2 2.7,4.4 4,9.3 4,14.8 0,5.4 -1.3,10.3 -3.9,14.6 -2.6,4.3 -6.2,7.7 -10.9,10.1 -4.6,2.4 -9.8,3.7 -15.6,3.7 -5.5,0 -10.5,-1.1 -15,-3.4 C 8.30724,72.1 4.8072348,68.8 2.1072348,64.5 -0.49276521,60.2 -1.7927647,55.1 -1.7927647,49.1 c 0,-0.1 0.1,-1.7 0.2999999,-4.8 z M 35.207239,61.5 c 2,-1.7 3.3,-4 3.8,-6.9 h -22.6 c 0.5,2.9 1.8,5.2 3.8,6.9 2,1.7 4.5,2.5 7.5,2.5 3,0 5.5,-0.8 7.5,-2.5 z" id="path3773" inkscape:connector-curvature="0" style="fill:#efd430"/>
			<path class="st1" d="m 81.7,73.9 c -4.8,-2.4 -8.5,-5.8 -11.2,-10.2 -2.7,-4.4 -4,-9.3 -4,-14.8 0,-5.4 1.3,-10.3 4,-14.7 2.7,-4.4 6.4,-7.7 11.1,-10.1 4.7,-2.4 10.1,-3.6 16.1,-3.6 6,0 11.4,1.2 16.1,3.6 4.8,2.4 8.5,5.8 11.1,10.1 2.7,4.3 4,9.2 4,14.7 0,5.5 -1.3,10.4 -4,14.8 -2.7,4.4 -6.4,7.8 -11.1,10.2 -4.8,2.4 -10.1,3.7 -16.1,3.7 -5.9,0 -11.3,-1.2 -16,-3.7 z m 24.4,-15.2 c 2.2,-2.3 3.3,-5.6 3.3,-9.7 0,-4.1 -1.1,-7.3 -3.3,-9.6 -2.2,-2.3 -5,-3.5 -8.4,-3.5 -3.4,0 -6.2,1.2 -8.4,3.5 -2.2,2.3 -3.3,5.5 -3.3,9.6 0,4.1 1.1,7.4 3.3,9.7 2.2,2.3 5,3.5 8.4,3.5 3.4,0 6.2,-1.2 8.4,-3.5 z" id="path3775" inkscape:connector-curvature="0" style="fill:#efd430"/>
			<path class="st1" d="m 190.5,26.6 c 4.2,4.1 6.3,10.2 6.3,18.5 V 76.7 H 177.4 V 48.2 c 0,-7.5 -3,-11.3 -9.1,-11.3 -3.3,0 -6,1.1 -8,3.3 -2,2.2 -3,5.4 -3,9.8 V 76.7 H 137.9 V 21.4 h 18.5 v 6 c 2.2,-2.2 4.8,-4 7.8,-5.2 3,-1.2 6.3,-1.8 9.8,-1.8 6.8,0.1 12.3,2.1 16.5,6.2 z" id="path3777" inkscape:connector-curvature="0" style="fill:#efd430"/>
			<path class="st1" d="m 265.9,53.9 h -40.2 c 0.8,2.9 2.4,5 4.7,6.6 2.3,1.5 5.3,2.3 8.8,2.3 2.7,0 4.9,-0.4 6.9,-1.1 1.9,-0.7 3.9,-2 5.9,-3.7 l 10.2,10.6 c -5.4,6 -13.2,9 -23.6,9 -6.5,0 -12.1,-1.2 -17,-3.7 -4.9,-2.4 -8.7,-5.8 -11.4,-10.2 -2.7,-4.4 -4,-9.3 -4,-14.8 0,-5.4 1.3,-10.3 3.9,-14.6 2.6,-4.3 6.2,-7.7 10.9,-10.1 4.6,-2.4 9.8,-3.7 15.6,-3.7 5.5,0 10.5,1.1 15,3.4 4.5,2.3 8,5.6 10.7,9.9 2.6,4.3 3.9,9.4 3.9,15.4 0,0.1 -0.1,1.7 -0.3,4.7 z M 229.2,36.8 c -2,1.7 -3.3,4 -3.8,6.9 H 248 c -0.5,-2.9 -1.8,-5.2 -3.8,-6.9 -2,-1.7 -4.5,-2.5 -7.5,-2.5 -3,0 -5.5,0.8 -7.5,2.5 z" id="path3779" inkscape:connector-curvature="0" style="fill:#efd430"/>
			<path class="st1" d="M 271.9,76.7 V 60.6 h 19.3 v 16.1 z" id="path3781" inkscape:connector-curvature="0" style="fill:#efd430"/>
			<path class="st1" d="m 348.9,24 c 4.1,2.3 7.4,5.7 9.8,10 2.4,4.3 3.6,9.3 3.6,15 0,5.7 -1.2,10.7 -3.6,15 -2.4,4.3 -5.7,7.6 -9.8,10 -4.1,2.3 -8.7,3.5 -13.7,3.5 -6.5,0 -11.6,-1.9 -15.4,-5.8 V 96.5 H 300.4 V 21.4 h 18.5 v 5.5 c 3.6,-4.3 9,-6.4 16.3,-6.4 5,0 9.5,1.2 13.7,3.5 z m -9.5,34.7 c 2.2,-2.3 3.3,-5.6 3.3,-9.6 0,-4 -1.1,-7.3 -3.3,-9.6 -2.2,-2.3 -5,-3.5 -8.4,-3.5 -3.4,0 -6.2,1.2 -8.4,3.5 -2.2,2.3 -3.3,5.6 -3.3,9.6 0,4 1.1,7.3 3.3,9.6 2.2,2.3 5,3.5 8.4,3.5 3.5,0 6.3,-1.2 8.4,-3.5 z" id="path3783" inkscape:connector-curvature="0" style="fill:#efd430"/>
			<path class="st1" d="m 371.3,1 h 19.4 v 75.7 h -19.4 z" id="path3785" inkscape:connector-curvature="0" style="fill:#efd430"/>
		</g>
	</g>
</g>
</svg>
