<?xml version="1.0" encoding="windows-1252"?>
<!-- Generator: Adobe Illustrator 19.0.0, SVG Export Plug-In . SVG Version: 6.00 Build 0)  -->
<svg xmlns="http://www.w3.org/2000/svg" xmlns:xlink="http://www.w3.org/1999/xlink" version="1.1" id="Capa_1" x="0px" y="0px" viewBox="0 0 512.001 512.001" style="enable-background:new 0 0 512.001 512.001;" xml:space="preserve">
<path style="fill:#79A1E8;" d="M49.431,268.9C-66.416,191.187,117.818-22.133,229.046,63.213  c145.511,111.651,209.755,73.266,237.892,143.663c33.035,82.652-18.124,112.52-147.777,200.012  C206.096,483.186,188.396,362.121,49.431,268.9z"/>
<g>
	<ellipse style="fill:#473CBA;" cx="277.19" cy="505.744" rx="162.233" ry="6.256"/>
	<rect x="249.669" y="286.854" style="fill:#473CBA;" width="123.292" height="173.991"/>
</g>
<rect x="211.498" y="286.854" style="fill:#FFFFFF;" width="123.292" height="173.991"/>
<polygon style="fill:#CFDDF7;" points="211.497,408.925 211.497,460.846 334.79,460.846 334.79,286.854 333.568,286.854 "/>
<rect x="372.149" y="357.351" style="fill:#473CBA;" width="123.292" height="103.494"/>
<rect x="334.512" y="357.351" style="fill:#79A1E8;" width="123.292" height="103.494"/>
<polygon style="fill:#5B86C4;" points="457.805,357.351 448.738,357.351 345.243,460.846 457.805,460.846 "/>
<rect x="86.711" y="337.852" style="fill:#D7ECF9;" width="123.292" height="122.993"/>
<polygon style="fill:#B3D4E5;" points="86.91,460.846 210.004,460.846 210.004,337.852 209.904,337.852 "/>
<path style="fill:#4B31AA;" d="M495.442,353.351H376.961v-66.496c0-2.209-1.791-4-4-4H211.497c-2.209,0-4,1.791-4,4v46.997H86.712  c-2.209,0-4,1.791-4,4v122.994c0,2.209,1.791,4,4,4h408.729c2.209,0,4-1.791,4-4V357.351  C499.442,355.142,497.651,353.351,495.442,353.351z M368.961,353.351H338.79v-62.496h30.172V353.351z M206.004,456.846H90.712  V341.852h115.292L206.004,456.846L206.004,456.846z M330.789,456.846H215.497V290.854h115.292V456.846z M338.79,456.846v-95.495  h115.016v95.495L338.79,456.846L338.79,456.846z M491.442,456.846h-29.637v-95.495h29.637V456.846z"/>
<path style="fill:#F9D015;" d="M273.144,388.095L273.144,388.095c-7.364,0-13.333-5.969-13.333-13.333v-50.667  c0-7.364,5.969-13.333,13.333-13.333l0,0c7.364,0,13.333,5.969,13.333,13.333v50.667  C286.477,382.126,280.507,388.095,273.144,388.095z"/>
<path style="fill:#FBB03B;" d="M259.81,360.612v14.15c0,7.364,5.97,13.333,13.333,13.333c7.364,0,13.333-5.969,13.333-13.333  v-40.817L259.81,360.612z"/>
<path style="fill:#4B31AA;" d="M273.144,392.096c-9.558,0-17.334-7.776-17.334-17.334v-50.666c0-9.558,7.776-17.334,17.334-17.334  s17.333,7.776,17.333,17.334v50.666C290.477,384.319,282.702,392.096,273.144,392.096z M273.144,314.762  c-5.146,0-9.334,4.188-9.334,9.334v50.666c0,5.146,4.188,9.334,9.334,9.334s9.333-4.188,9.333-9.334v-50.666  C282.477,318.949,278.29,314.762,273.144,314.762z"/>
<path style="fill:#F9D015;" d="M130.918,425.745L130.918,425.745c-5.266,0-9.534-4.269-9.534-9.534V379.98  c0-5.266,4.269-9.534,9.534-9.534l0,0c5.266,0,9.534,4.269,9.534,9.534v36.231C140.453,421.477,136.184,425.745,130.918,425.745z"/>
<path style="fill:#FBB03B;" d="M121.384,412.039v4.172c0,5.266,4.269,9.535,9.534,9.535c5.266,0,9.535-4.269,9.535-9.535V392.97  L121.384,412.039z"/>
<path style="fill:#4B31AA;" d="M130.918,429.745c-7.463,0-13.535-6.071-13.535-13.534V379.98c0-7.463,6.072-13.534,13.535-13.534  s13.534,6.071,13.534,13.534v36.231C144.453,423.674,138.381,429.745,130.918,429.745z M130.918,374.445  c-3.052,0-5.535,2.482-5.535,5.534v36.231c0,3.052,2.483,5.534,5.535,5.534s5.534-2.482,5.534-5.534v-36.231  C136.453,376.928,133.97,374.445,130.918,374.445z"/>
<path style="fill:#F9D015;" d="M165.798,425.745L165.798,425.745c-5.266,0-9.534-4.269-9.534-9.534V379.98  c0-5.266,4.269-9.534,9.534-9.534l0,0c5.266,0,9.534,4.269,9.534,9.534v36.231C175.332,421.477,171.064,425.745,165.798,425.745z"/>
<path style="fill:#FBB03B;" d="M156.263,408.825v7.385c0,5.266,4.269,9.535,9.535,9.535c5.266,0,9.535-4.269,9.535-9.535v-26.454  L156.263,408.825z"/>
<path style="fill:#4B31AA;" d="M165.798,429.745c-7.463,0-13.535-6.071-13.535-13.534V379.98c0-7.463,6.072-13.534,13.535-13.534  s13.534,6.071,13.534,13.534v36.231C179.332,423.674,173.261,429.745,165.798,429.745z M165.798,374.445  c-3.052,0-5.535,2.482-5.535,5.534v36.231c0,3.052,2.483,5.534,5.535,5.534s5.534-2.482,5.534-5.534v-36.231  C171.333,376.928,168.85,374.445,165.798,374.445z"/>
<path style="fill:#F9D015;" d="M396.967,427.746h-1.617c-4.819,0-8.726-3.907-8.726-8.726v-28.865c0-4.819,3.907-8.726,8.726-8.726  h1.617c4.819,0,8.726,3.907,8.726,8.726v28.865C405.693,423.839,401.786,427.746,396.967,427.746z"/>
<path style="fill:#FBB03B;" d="M386.624,415.131v3.888c0,4.819,3.907,8.726,8.726,8.726h1.618c4.819,0,8.726-3.907,8.726-8.726  v-22.957L386.624,415.131z"/>
<path style="fill:#4B31AA;" d="M396.967,431.745h-1.617c-7.017,0-12.726-5.709-12.726-12.726v-28.865  c0-7.017,5.709-12.726,12.726-12.726h1.617c7.017,0,12.726,5.709,12.726,12.726v28.865  C409.693,426.036,403.984,431.745,396.967,431.745z M395.35,385.429c-2.606,0-4.726,2.12-4.726,4.726v28.865  c0,2.606,2.12,4.726,4.726,4.726h1.617c2.606,0,4.726-2.12,4.726-4.726v-28.865c0-2.606-2.12-4.726-4.726-4.726H395.35z"/>
<path style="fill:#F9D015;" d="M363.194,427.746h-1.617c-4.819,0-8.726-3.907-8.726-8.726v-28.865c0-4.819,3.907-8.726,8.726-8.726  h1.617c4.819,0,8.726,3.907,8.726,8.726v28.865C371.92,423.839,368.013,427.746,363.194,427.746z"/>
<path style="fill:#FBB03B;" d="M352.851,416.571v2.449c0,4.819,3.907,8.726,8.726,8.726h1.618c4.819,0,8.726-3.907,8.726-8.726  v-21.518L352.851,416.571z"/>
<path style="fill:#4B31AA;" d="M363.194,431.745h-1.617c-7.017,0-12.726-5.709-12.726-12.726v-28.865  c0-7.017,5.709-12.726,12.726-12.726h1.617c7.018,0,12.727,5.709,12.727,12.726v28.865  C375.92,426.036,370.211,431.745,363.194,431.745z M361.577,385.429c-2.606,0-4.726,2.12-4.726,4.726v28.865  c0,2.606,2.12,4.726,4.726,4.726h1.617c2.606,0,4.727-2.12,4.727-4.726v-28.865c0-2.606-2.12-4.726-4.727-4.726H361.577z"/>
<path style="fill:#F9D015;" d="M430.741,427.746h-1.617c-4.819,0-8.726-3.907-8.726-8.726v-28.865c0-4.819,3.907-8.726,8.726-8.726  h1.617c4.819,0,8.726,3.907,8.726,8.726v28.865C439.466,423.839,435.56,427.746,430.741,427.746z"/>
<path style="fill:#FBB03B;" d="M420.397,414.358v4.661c0,4.819,3.907,8.726,8.726,8.726h1.618c4.819,0,8.726-3.907,8.726-8.726  v-23.731L420.397,414.358z"/>
<g>
	<path style="fill:#4B31AA;" d="M430.741,431.745h-1.617c-7.018,0-12.726-5.709-12.726-12.726v-28.865   c0-7.017,5.709-12.726,12.726-12.726h1.617c7.017,0,12.726,5.709,12.726,12.726v28.865   C443.466,426.036,437.757,431.745,430.741,431.745z M429.123,385.429c-2.606,0-4.727,2.12-4.727,4.726v28.865   c0,2.606,2.12,4.726,4.727,4.726h1.617c2.606,0,4.726-2.12,4.726-4.726v-28.865c0-2.606-2.12-4.726-4.726-4.726H429.123z"/>
	<path style="fill:#4B31AA;" d="M196.169,197.97c0,1.921-1.557,3.478-3.478,3.478l-18.546,0c-1.921,0-3.478-1.557-3.478-3.478   c0-1.921,1.557-3.477,3.478-3.477l18.546,0C194.612,194.493,196.169,196.049,196.169,197.97z"/>
	<path style="fill:#4B31AA;" d="M202.351,234.171c0,0.987-0.419,1.968-1.231,2.657l-14.691,12.43   c-1.466,1.24-3.661,1.057-4.901-0.409c-1.24-1.465-1.057-3.66,0.408-4.901l14.691-12.43c1.466-1.24,3.661-1.057,4.901,0.409   C202.081,232.579,202.351,233.377,202.351,234.171z"/>
	<path style="fill:#4B31AA;" d="M202.351,161.769c0,0.794-0.27,1.591-0.823,2.245c-1.24,1.466-3.435,1.649-4.901,0.408   l-14.691-12.43c-1.465-1.24-1.648-3.435-0.408-4.901c1.24-1.466,3.435-1.649,4.901-0.408l14.691,12.43   C201.933,159.8,202.351,160.781,202.351,161.769z"/>
	<path style="fill:#4B31AA;" d="M357.506,197.974c0-1.921,1.557-3.478,3.478-3.478h18.546c1.921,0,3.478,1.557,3.478,3.478   c0,1.921-1.557,3.477-3.478,3.477h-18.546C359.063,201.452,357.506,199.895,357.506,197.974z"/>
	<path style="fill:#4B31AA;" d="M351.325,161.774c0-0.987,0.419-1.968,1.231-2.657l14.691-12.43c1.466-1.24,3.661-1.057,4.901,0.409   c1.24,1.465,1.057,3.66-0.408,4.901l-14.691,12.43c-1.466,1.24-3.661,1.057-4.901-0.409   C351.595,163.365,351.325,162.567,351.325,161.774z"/>
	<path style="fill:#4B31AA;" d="M351.324,234.175c0-0.794,0.27-1.591,0.823-2.245c1.24-1.466,3.435-1.649,4.901-0.408l14.691,12.43   c1.465,1.24,1.648,3.435,0.408,4.901c-1.24,1.466-3.435,1.649-4.901,0.408l-14.691-12.43   C351.743,236.144,351.324,235.163,351.324,234.175z"/>
</g>
<rect x="156.304" y="4" style="fill:#5450C9;" width="237.487" height="49.189"/>
<polygon style="fill:#473CBA;" points="271.116,227.845 156.304,85.478 156.304,21.851 271.116,164.218 "/>
<polygon style="fill:#D7ECF9;" points="271.116,210.101 156.304,67.734 156.304,4.107 271.116,146.474 "/>
<polygon style="fill:#473CBA;" points="278.979,227.845 393.791,85.478 393.791,21.851 278.979,164.218 "/>
<polygon style="fill:#D7ECF9;" points="278.979,210.101 393.791,67.734 393.791,4.107 278.979,146.474 "/>
<path style="fill:#473CBA;" d="M273.786,244.379h9.795c26.684,0,48.316-21.632,48.316-48.316s-21.632-48.316-48.316-48.316h-8.986"/>
<circle style="fill:#F9D015;" cx="272.763" cy="196.063" r="48.316"/>
<path style="fill:#FBB03B;" d="M306.362,161.361l-68.302,68.302c8.783,9.07,21.08,14.716,34.702,14.716  c26.684,0,48.316-21.632,48.316-48.316C321.078,182.441,315.432,170.144,306.362,161.361z"/>
<path style="fill:#4B31AA;" d="M397.257,2.132c0.013-0.007,0.025-0.016,0.038-0.024C396.619,0.859,395.312,0,393.791,0H156.304  c-1.995,0-3.626,1.468-3.926,3.378c-0.023,0.126-0.035,0.254-0.047,0.384c-0.003,0.051-0.027,81.717-0.027,81.717  c0,0.914,0.313,1.8,0.887,2.511l71.168,88.249c-2.515,6.118-3.913,12.81-3.913,19.825c0,28.847,23.469,52.315,52.315,52.315  c0.275,0,10.819,0,10.819,0c28.847,0,52.315-23.469,52.315-52.315c0-8.934-2.255-17.349-6.219-24.713l67.227-83.361  c0.574-0.711,0.887-1.597,0.887-2.511V4.107C397.791,3.396,397.594,2.722,397.257,2.132z M385.514,8l-33.218,41.189H197.799  L164.581,8H385.514z M276.04,143.764c0,0-1.909,0.001-1.958,0L204.25,57.189h141.595L276.04,143.764z M160.304,15.439  l104.029,128.996c-11.234,1.828-21.276,7.245-28.911,15.034l-75.118-93.148V15.439z M160.304,84.066v-5.001l69.882,86.654  c-0.637,0.891-1.249,1.8-1.83,2.731L160.304,84.066z M272.762,240.379c-24.436,0-44.315-19.88-44.315-44.315  c0-24.437,19.88-44.316,44.315-44.316s44.315,19.88,44.315,44.316C317.078,220.499,297.198,240.379,272.762,240.379z   M313.851,228.387c7.021-8.905,11.226-20.129,11.226-32.323c0-12.195-4.205-23.418-11.226-32.324  c8.635,8.091,14.046,19.585,14.046,32.324C327.897,208.803,322.486,220.295,313.851,228.387z M389.791,84.066l-64.692,80.218  c-0.651-0.849-1.33-1.675-2.031-2.481l66.724-82.737L389.791,84.066L389.791,84.066z M389.791,51.524v14.798L317.35,156.15  c-8.483-7.188-19.27-11.736-31.088-12.335l103.53-128.376V51.524z"/>
<circle style="fill:#F7931E;" cx="272.763" cy="196.063" r="26.487"/>
<path style="fill:#D67513;" d="M290.927,176.796l-37.432,37.432c4.83,5.121,11.673,8.322,19.267,8.322  c14.628,0,26.487-11.859,26.487-26.487C299.249,188.469,296.048,181.626,290.927,176.796z"/>
<path style="fill:#4B31AA;" d="M272.762,226.55c-16.811,0-30.486-13.676-30.486-30.486s13.676-30.487,30.486-30.487  s30.486,13.677,30.486,30.487S289.573,226.55,272.762,226.55z M272.762,173.576c-12.399,0-22.486,10.088-22.486,22.487  c0,12.4,10.087,22.486,22.486,22.486s22.486-10.087,22.486-22.486C295.248,183.664,285.161,173.576,272.762,173.576z"/>
<g>
</g>
<g>
</g>
<g>
</g>
<g>
</g>
<g>
</g>
<g>
</g>
<g>
</g>
<g>
</g>
<g>
</g>
<g>
</g>
<g>
</g>
<g>
</g>
<g>
</g>
<g>
</g>
<g>
</g>
</svg>