<?xml version="1.0" encoding="windows-1252"?>
<!-- Generator: Adobe Illustrator 19.0.0, SVG Export Plug-In . SVG Version: 6.00 Build 0)  -->
<svg xmlns="http://www.w3.org/2000/svg" xmlns:xlink="http://www.w3.org/1999/xlink" version="1.1" id="Capa_1" x="0px" y="0px" viewBox="0 0 512 512" style="enable-background:new 0 0 512 512;" xml:space="preserve">
<g>
	<ellipse style="fill:#473CBA;" cx="160.941" cy="498.943" rx="120.843" ry="6.503"/>
	<ellipse style="fill:#473CBA;" cx="357.311" cy="461.236" rx="75.527" ry="6.503"/>
</g>
<path style="fill:#79A1E8;" d="M422.569,20.985c142.215-34.265,104.24,268.355-39.465,293.509  c-187.998,32.908-234.724,101.623-340.142,5.395c-66.631-60.823-43.921-97.421-11.026-210.499  C73.277-32.719,251.974,62.087,422.569,20.985z"/>
<rect x="378.612" y="213.836" style="fill:#D7ECF9;" width="24.681" height="31.262"/>
<polygon style="fill:#FFFFFF;" points="477.334,237.694 477.334,221.24 417.689,196.56 395.065,213.014 395.065,245.921   417.689,262.375 "/>
<g>
	<circle style="fill:#D7ECF9;" cx="427.972" cy="229.467" r="8.227"/>
</g>
<polygon style="fill:#E1F0FA;" points="346.115,204.787 111.65,219.184 111.65,235.637 346.115,254.148 "/>
<path style="fill:#FBB03B;" d="M382.313,245.578v-32.222c0-4.733-3.837-8.57-8.57-8.57h-27.629v49.361h27.629  C378.477,254.148,382.313,250.311,382.313,245.578z"/>
<path style="fill:#4B31AA;" d="M478.874,217.518l-59.645-24.68c-1.291-0.535-2.774-0.36-3.909,0.464l-22.624,16.454  c-0.022,0.016-0.041,0.035-0.063,0.052h-6.809c-1.537-5.223-6.367-9.049-12.08-9.049h-27.628c-0.044,0-0.085,0.012-0.129,0.013  c-0.04,0.001-0.078-0.007-0.118-0.005l-234.465,14.397c-2.125,0.13-3.781,1.891-3.781,4.02v16.454c0,2.102,1.616,3.85,3.711,4.015  l234.465,18.51c0.105,0.009,0.211,0.013,0.317,0.013h27.628c5.713,0,10.543-3.827,12.08-9.049h6.808  c0.022,0.017,0.042,0.037,0.065,0.053l22.624,16.454c0.699,0.508,1.531,0.77,2.369,0.77c0.521,0,1.044-0.101,1.54-0.306  l59.645-24.681c1.506-0.623,2.488-2.093,2.488-3.722V221.24C481.362,219.61,480.379,218.141,478.874,217.518z M342.087,249.789  l-226.409-17.874v-8.943l226.409-13.903L342.087,249.789L342.087,249.789z M391.037,241.07h-4.696v-23.206h4.696V241.07z   M378.285,245.578c0,2.504-2.038,4.541-4.541,4.541h-23.6v-41.305h23.6c2.504,0,4.541,2.038,4.541,4.541V245.578z M418.234,257.79  l-19.14-13.92v-28.805l19.14-13.92l55.072,22.788v1.507h-33.772c-1.671-4.782-6.216-8.227-11.56-8.227  c-6.758,0-12.255,5.497-12.255,12.255c0,6.757,5.497,12.254,12.255,12.254c5.344,0,9.889-3.445,11.56-8.226h33.773v1.506  L418.234,257.79z M432.171,229.467c0,2.315-1.883,4.198-4.198,4.198c-2.315,0-4.199-1.883-4.199-4.198s1.884-4.199,4.199-4.199  C430.288,225.268,432.171,227.152,432.171,229.467z"/>
<g>
	<path style="fill:#E1F0FA;" d="M155.441,173.188c21.54,0,39.001-17.462,39.001-39.001l0-123.604l252.32,0l0,123.604   c0,21.54-17.462,39.001-39.001,39.001L155.441,173.188L155.441,173.188z"/>
	<polygon style="fill:#E1F0FA;" points="155.441,173.188 155.441,173.188 155.441,173.188  "/>
</g>
<path style="fill:#BAD9E8;" d="M446.762,10.582h-43.93L240.226,173.188h167.535c21.54,0,39.001-17.462,39.001-39.001L446.762,10.582  z"/>
<path style="fill:#473CBA;" d="M328.604,69.32c21.54,0,39.001,17.462,39.001,39.001v25.862c0,21.54,17.462,39.001,39.001,39.001  H262.651V69.32H328.604"/>
<path style="fill:#FFFFFF;" d="M289.603,435.442v-327.12c0-21.54,17.462-39.001,39.001-39.001H81.095  c-21.54,0-39.001,17.462-39.001,39.001v327.12H289.603z"/>
<path style="fill:#CFDDF7;" d="M42.094,435.442h247.509v-327.12c0-2.817,0.305-5.561,0.873-8.209L42.094,348.494V435.442z"/>
<path style="fill:#4B31AA;" d="M446.763,6.554h-252.32c-2.225,0-4.028,1.804-4.028,4.028v54.71H81.095  c-23.727,0-43.03,19.303-43.03,43.03v327.12c0,2.225,1.804,4.028,4.028,4.028h247.509c2.225,0,4.028-1.804,4.028-4.028V177.216  h114.13c23.727-0.001,43.03-19.305,43.03-43.03V10.582C450.791,8.358,448.987,6.554,446.763,6.554z M285.575,431.414H46.122V108.322  c0-19.284,15.689-34.974,34.974-34.974h203.178h19.29c-10.886,7.816-17.988,20.58-17.988,34.974L285.575,431.414L285.575,431.414z   M363.578,108.322v25.861c0,14.393,7.102,27.157,17.987,34.974h-87.934v-60.835c0-19.284,15.689-34.974,34.974-34.974  C347.888,73.348,363.578,89.038,363.578,108.322z M442.735,134.187c0,19.284-15.69,34.972-34.974,34.974h-1.115  c-0.013,0-0.026-0.004-0.039-0.004c-19.284,0-34.972-15.689-34.972-34.974v-25.861c0-23.727-19.303-43.03-43.03-43.03H283.62  h-85.149V14.61h244.264L442.735,134.187L442.735,134.187z"/>
<circle style="fill:#F9D015;" cx="162.704" cy="204.76" r="54.97"/>
<path style="fill:#FBB03B;" d="M137.157,253.431c7.634,4.015,16.321,6.298,25.546,6.298c30.359,0,54.97-24.611,54.97-54.97  c0-9.225-2.283-17.912-6.299-25.546L137.157,253.431z"/>
<g>
	<path style="fill:#4B31AA;" d="M162.704,263.758c-32.532,0-58.999-26.466-58.999-58.998s26.467-58.998,58.999-58.998   s58.998,26.466,58.998,58.998S195.235,263.758,162.704,263.758z M162.704,153.819c-28.09,0-50.942,22.852-50.942,50.941   s22.853,50.941,50.942,50.941s50.941-22.852,50.941-50.941S190.793,153.819,162.704,153.819z"/>
	<path style="fill:#4B31AA;" d="M162.179,239.797c-8.977,0-17.952-3.417-24.786-10.251c-13.667-13.667-13.668-35.905,0-49.572   c13.666-13.668,35.905-13.668,49.572,0c1.573,1.573,1.573,4.123,0,5.696c-1.572,1.573-4.125,1.573-5.696,0   c-10.527-10.527-27.654-10.527-38.181,0c-10.526,10.527-10.526,27.654,0,38.18c10.527,10.527,27.654,10.527,38.18,0   c1.572-1.573,4.125-1.573,5.696,0c1.573,1.573,1.573,4.123,0,5.696C180.131,236.379,171.155,239.797,162.179,239.797z"/>
</g>
<g>
	<path style="fill:#79A1E8;" d="M227.489,296.117H97.918c-2.225,0-4.028-1.804-4.028-4.028s1.804-4.028,4.028-4.028h129.571   c2.225,0,4.028,1.804,4.028,4.028C231.517,294.314,229.713,296.117,227.489,296.117z"/>
	<path style="fill:#79A1E8;" d="M227.489,317.807H97.918c-2.225,0-4.028-1.804-4.028-4.028s1.804-4.028,4.028-4.028h129.571   c2.225,0,4.028,1.804,4.028,4.028S229.713,317.807,227.489,317.807z"/>
	<path style="fill:#79A1E8;" d="M227.489,339.497H97.918c-2.225,0-4.028-1.804-4.028-4.028s1.804-4.028,4.028-4.028h129.571   c2.225,0,4.028,1.804,4.028,4.028C231.517,337.694,229.713,339.497,227.489,339.497z"/>
	<path style="fill:#79A1E8;" d="M227.489,361.187H97.918c-2.225,0-4.028-1.804-4.028-4.028s1.804-4.028,4.028-4.028h129.571   c2.225,0,4.028,1.804,4.028,4.028S229.713,361.187,227.489,361.187z"/>
</g>
<g>
	<path style="fill:#FFFFFF;" d="M328.802,361.662c0-16.126,13.072-29.198,29.198-29.198c16.125,0,29.198,13.072,29.198,29.198"/>
	<circle style="fill:#FFFFFF;" cx="279.024" cy="361.663" r="50.901"/>
</g>
<path style="fill:#CFDDF7;" d="M317.784,328.687l-71.735,71.735c8.882,7.567,20.391,12.141,32.975,12.141  c28.112,0,50.901-22.789,50.901-50.901C329.924,349.079,325.351,337.57,317.784,328.687z"/>
<circle style="fill:#FFFFFF;" cx="436.691" cy="361.663" r="50.901"/>
<path style="fill:#CFDDF7;" d="M476.098,329.484l-71.586,71.586c8.77,7.174,19.964,11.493,32.178,11.493  c28.112,0,50.901-22.789,50.901-50.901C487.591,349.447,483.272,338.253,476.098,329.484z"/>
<path style="fill:#4B31AA;" d="M436.691,306.733c-23.594,0-43.757,14.954-51.519,35.88c-6.014-8.559-15.94-14.177-27.173-14.177  c-11.347,0-21.364,5.73-27.359,14.435c-7.691-21.061-27.925-36.138-51.616-36.138c-30.288,0-54.929,24.641-54.929,54.928  c0,30.288,24.641,54.929,54.929,54.929c30.287,0,54.928-24.641,54.928-54.929c0-2.086-0.128-4.143-0.356-6.169  c2.758-10.906,12.651-19,24.402-19c11.496,0,21.209,7.749,24.208,18.296c-0.283,2.254-0.445,4.544-0.445,6.874  c0,30.288,24.641,54.929,54.929,54.929c30.288,0,54.929-24.641,54.929-54.929C491.62,331.374,466.979,306.733,436.691,306.733z   M279.024,408.535c-25.845,0-46.873-21.028-46.873-46.873c0-25.845,21.028-46.872,46.873-46.872s46.872,21.027,46.872,46.872  C325.896,387.507,304.869,408.535,279.024,408.535z M436.691,408.535c-25.845,0-46.873-21.028-46.873-46.873  c0-25.845,21.028-46.872,46.873-46.872c25.845,0,46.873,21.027,46.873,46.872C483.563,387.507,462.536,408.535,436.691,408.535z"/>
<path style="fill:#4B31AA;" d="M259.126,376.94c-1.031,0-2.061-0.393-2.848-1.18c-1.573-1.573-1.573-4.123,0-5.696l30.379-30.378  c1.572-1.573,4.123-1.573,5.696,0c1.573,1.573,1.573,4.123,0,5.696l-30.379,30.378C261.189,376.547,260.157,376.94,259.126,376.94z"/>
<path style="fill:#4B31AA;" d="M253.42,355.457c-1.031,0-2.062-0.393-2.848-1.18c-1.573-1.573-1.573-4.124,0-5.696l13.931-13.93  c1.573-1.573,4.125-1.573,5.696,0c1.573,1.573,1.573,4.124,0,5.696l-13.931,13.93C255.481,355.064,254.45,355.457,253.42,355.457z"/>
<path style="fill:#4B31AA;" d="M417.901,376.94c-1.031,0-2.062-0.393-2.848-1.18c-1.573-1.573-1.573-4.123,0-5.696l30.378-30.378  c1.572-1.573,4.125-1.573,5.696,0c1.573,1.573,1.573,4.123,0,5.696l-30.378,30.378C419.964,376.547,418.932,376.94,417.901,376.94z"/>
<path style="fill:#4B31AA;" d="M412.194,355.457c-1.031,0-2.062-0.393-2.848-1.18c-1.573-1.573-1.573-4.124,0-5.696l13.93-13.93  c1.572-1.573,4.125-1.573,5.696,0c1.573,1.573,1.573,4.124,0,5.696l-13.93,13.93C414.257,355.064,413.225,355.457,412.194,355.457z"/>
<g>
</g>
<g>
</g>
<g>
</g>
<g>
</g>
<g>
</g>
<g>
</g>
<g>
</g>
<g>
</g>
<g>
</g>
<g>
</g>
<g>
</g>
<g>
</g>
<g>
</g>
<g>
</g>
<g>
</g>
</svg>