<?xml version="1.0" encoding="windows-1252"?>
<!-- Generator: Adobe Illustrator 19.0.0, SVG Export Plug-In . SVG Version: 6.00 Build 0)  -->
<svg xmlns="http://www.w3.org/2000/svg" xmlns:xlink="http://www.w3.org/1999/xlink" version="1.1" id="Capa_1" x="0px" y="0px" viewBox="0 0 512 512" style="enable-background:new 0 0 512 512;" xml:space="preserve">
<path style="fill:#79A1E8;" d="M466.941,150.649c90.603,113.281-49.561,290.138-166.643,200.552  C189.443,266.381,58.374,237.077,54.156,145.446C48.294,18.072,138.271,66.407,257.733,16.678  C392.435-39.395,391.417,56.222,466.941,150.649z"/>
<path style="fill:#473CBA;" d="M255.758,21.768L255.758,21.768c17.286,0,31.299,14.013,31.299,31.299v33.968l-83.465,0V21.768  L255.758,21.768"/>
<path style="fill:#FFFFFF;" d="M20.057,54.752c0-18.217,14.768-32.985,32.984-32.985h202.716c-17.286,0-31.299,14.013-31.299,31.299  l0,171.45c0,16.263-13.184,29.447-29.447,29.447h-25.243c-11.866,0-22.912,6.058-29.29,16.064l-18.332,28.759l-18.332-28.759  c-6.378-10.006-17.424-16.064-29.29-16.064l-25.02,0c-16.263,0-29.447-13.184-29.447-29.447L20.057,54.752z"/>
<path style="fill:#CFDDF7;" d="M255.758,21.768h-40.583L20.058,216.885v7.632c0,16.263,13.184,29.447,29.447,29.447h25.02  c11.866,0,22.912,6.058,29.29,16.064l18.332,28.759l18.332-28.759c6.378-10.006,17.424-16.064,29.29-16.064h25.243  c16.263,0,29.447-13.184,29.447-29.447l0-171.449C224.458,35.781,238.472,21.768,255.758,21.768z"/>
<path style="fill:#4B31AA;" d="M255.758,17.768H53.042c-20.394,0-36.984,16.591-36.984,36.984v169.765  c0,18.443,15.004,33.447,33.446,33.447l25.02-0.001c10.554,0,20.243,5.313,25.917,14.215l18.332,28.76  c0.734,1.152,2.007,1.85,3.373,1.85c1.366,0,2.639-0.697,3.373-1.85l18.332-28.76c5.674-8.901,15.363-14.215,25.917-14.215h25.243  c18.443,0,33.447-15.004,33.447-33.446l-0.001-133.481h58.599c2.209,0,4-1.791,4-4V53.067  C291.058,33.603,275.223,17.768,255.758,17.768z M195.012,249.963h-25.243c-13.302,0-25.512,6.697-32.663,17.914l-14.959,23.469  l-14.959-23.469c-7.151-11.217-19.362-17.914-32.663-17.914l-25.02,0.001c-14.031,0-25.446-11.416-25.446-25.447V54.752  c0-15.982,13.002-28.984,28.984-28.984h180.361c-7.898,6.48-12.945,16.311-12.945,27.3l0.001,171.449  C220.459,238.548,209.043,249.963,195.012,249.963z M283.058,83.035h-54.599l0-29.968c0-15.053,12.247-27.3,27.3-27.3  s27.3,12.247,27.3,27.3L283.058,83.035L283.058,83.035z"/>
<circle style="fill:#F9D015;" cx="124.943" cy="112" r="56.5"/>
<path style="fill:#FBB03B;" d="M84.991,151.952c10.225,10.224,24.35,16.548,39.952,16.548c31.204,0,56.5-25.296,56.5-56.5  c0-15.602-6.324-29.727-16.548-39.952L84.991,151.952z"/>
<g>
	<path style="fill:#473CBA;" d="M125.436,184.716c-5.522,0-10-4.478-10-10v-7.644c0-16.351,8.291-31.439,22.179-40.363   c5.981-3.844,9.261-10.077,8.772-16.676c-0.689-9.316-9.027-16.845-19.394-17.511c-6.276-0.406-12.373,1.701-16.714,5.772   c-3.768,3.533-5.843,8.167-5.843,13.048c0,5.522-4.478,10-10,10c-5.522,0-10-4.478-10-10c0-10.467,4.319-20.281,12.162-27.637   c8.356-7.837,19.909-11.898,31.677-11.143c20.274,1.303,36.636,16.776,38.058,35.993c1.023,13.82-5.838,27.223-17.905,34.978   c-8.135,5.227-12.991,14.025-12.991,23.537v7.644C135.436,180.238,130.958,184.716,125.436,184.716z"/>
	<path style="fill:#473CBA;" d="M125.433,214.58c-2.631,0-5.21-1.07-7.07-2.931c-1.86-1.859-2.93-4.439-2.93-7.069   s1.069-5.21,2.93-7.07c1.86-1.86,4.439-2.93,7.07-2.93c2.64,0,5.21,1.069,7.069,2.93c1.86,1.86,2.931,4.44,2.931,7.07   s-1.07,5.21-2.931,7.069C130.643,213.51,128.072,214.58,125.433,214.58z"/>
	<ellipse style="fill:#473CBA;" cx="284.943" cy="505.543" rx="75" ry="6.457"/>
	<ellipse style="fill:#473CBA;" cx="104.942" cy="356.158" rx="75" ry="6.457"/>
	<path style="fill:#473CBA;" d="M416.12,167.261L416.12,167.261c17.286,0,31.299,14.013,31.299,31.299v33.968l-83.465,0v-65.268   H416.12"/>
</g>
<path style="fill:#D7ECF9;" d="M180.42,200.245c0-18.217,14.768-32.985,32.984-32.985h202.716  c-17.286,0-31.299,14.013-31.299,31.299l0,171.45c0,16.263-13.184,29.447-29.447,29.447h-25.243  c-11.866,0-22.912,6.058-29.29,16.064l-18.332,28.759l-18.332-28.759c-6.378-10.006-17.424-16.064-29.29-16.064h-25.02  c-16.263,0-29.447-13.184-29.447-29.446L180.42,200.245z"/>
<path style="fill:#B3D4E5;" d="M416.12,167.261h-31.439L180.457,371.485c0.769,15.577,13.641,27.971,29.409,27.971h25.02  c11.866,0,22.912,6.058,29.29,16.064l18.332,28.759l18.332-28.759c6.378-10.006,17.424-16.064,29.29-16.064h25.243  c16.263,0,29.447-13.184,29.446-29.447l0-171.449C384.821,181.274,398.834,167.261,416.12,167.261z"/>
<path style="fill:#4B31AA;" d="M416.12,163.261H213.404c-20.394,0-36.984,16.591-36.984,36.984V370.01  c0,18.442,15.004,33.446,33.446,33.446h25.02c10.556,0,20.244,5.313,25.917,14.215l18.332,28.759c0.734,1.152,2.007,1.85,3.373,1.85  s2.639-0.697,3.373-1.85l18.333-28.76c5.673-8.9,15.361-14.214,25.917-14.214h25.243c18.442,0,33.446-15.004,33.446-33.446V236.528  h58.599c2.209,0,4-1.791,4-4V198.56C451.42,179.096,435.585,163.261,416.12,163.261z M380.821,370.01  c0,14.031-11.415,25.446-25.446,25.446h-25.243c-13.303,0-25.514,6.697-32.663,17.914l-14.96,23.468l-14.959-23.467  c-7.149-11.218-19.36-17.915-32.663-17.915h-25.02c-14.031,0-25.446-11.415-25.446-25.446V200.245  c0-15.982,13.002-28.984,28.984-28.984h180.361c-7.898,6.479-12.944,16.31-12.944,27.299L380.821,370.01L380.821,370.01z   M443.42,228.528h-54.599V198.56c0-15.053,12.246-27.299,27.299-27.299c15.053,0,27.3,12.246,27.3,27.299L443.42,228.528  L443.42,228.528z"/>
<rect x="217.609" y="219.226" style="fill:#F7931E;" width="128.667" height="40.666"/>
<polygon style="fill:#E07E1E;" points="292.05,259.892 346.276,259.892 346.276,219.226 332.717,219.226 "/>
<path style="fill:#4B31AA;" d="M346.275,263.893H217.61c-2.209,0-4-1.791-4-4v-40.667c0-2.209,1.791-4,4-4h128.666  c2.209,0,4,1.791,4,4v40.667C350.275,262.102,348.484,263.893,346.275,263.893z M221.609,255.893h120.666v-32.667H221.609  L221.609,255.893L221.609,255.893z"/>
<g>
	<path style="fill:#79A1E8;" d="M346.275,292.333H217.61c-2.209,0-4-1.791-4-4c0-2.209,1.791-4,4-4h128.666c2.209,0,4,1.791,4,4   C350.275,290.542,348.484,292.333,346.275,292.333z"/>
	<path style="fill:#79A1E8;" d="M346.275,313.872H217.61c-2.209,0-4-1.791-4-4c0-2.209,1.791-4,4-4h128.666c2.209,0,4,1.791,4,4   C350.275,312.081,348.484,313.872,346.275,313.872z"/>
	<path style="fill:#79A1E8;" d="M346.275,335.41H217.61c-2.209,0-4-1.791-4-4c0-2.209,1.791-4,4-4h128.666c2.209,0,4,1.791,4,4   C350.275,333.619,348.484,335.41,346.275,335.41z"/>
	<path style="fill:#79A1E8;" d="M346.275,356.949H217.61c-2.209,0-4-1.791-4-4c0-2.209,1.791-4,4-4h128.666c2.209,0,4,1.791,4,4   C350.275,355.158,348.484,356.949,346.275,356.949z"/>
</g>
<g>
	<path style="fill:#4B31AA;" d="M346.942,103c-2.209,0-4-1.791-4-4V73.297c0-2.209,1.791-4,4-4s4,1.791,4,4V99   C350.943,101.209,349.151,103,346.942,103z"/>
	<path style="fill:#4B31AA;" d="M383.8,113.359c-0.743,0-1.494-0.206-2.165-0.639c-1.856-1.198-2.39-3.674-1.192-5.53l13.139-20.359   c1.199-1.856,3.674-2.39,5.53-1.192c1.856,1.198,2.39,3.674,1.192,5.53l-13.139,20.359   C386.4,112.714,385.113,113.359,383.8,113.359z"/>
	<path style="fill:#4B31AA;" d="M409.81,143.001c-1.467,0-2.88-0.811-3.581-2.212c-0.987-1.977-0.186-4.379,1.789-5.367   l17.136-8.567c1.973-0.988,4.378-0.188,5.367,1.789c0.987,1.977,0.186,4.379-1.789,5.367l-17.136,8.567   C411.022,142.865,410.411,143.001,409.81,143.001z"/>
</g>
<g>
</g>
<g>
</g>
<g>
</g>
<g>
</g>
<g>
</g>
<g>
</g>
<g>
</g>
<g>
</g>
<g>
</g>
<g>
</g>
<g>
</g>
<g>
</g>
<g>
</g>
<g>
</g>
<g>
</g>
</svg>