<?xml version="1.0" encoding="windows-1252"?>
<!-- Generator: Adobe Illustrator 19.0.0, SVG Export Plug-In . SVG Version: 6.00 Build 0)  -->
<svg xmlns="http://www.w3.org/2000/svg" xmlns:xlink="http://www.w3.org/1999/xlink" version="1.1" id="Capa_1" x="0px" y="0px" viewBox="0 0 512.007 512.007" style="enable-background:new 0 0 512.007 512.007;" xml:space="preserve">
<path style="fill:#79A1E8;" d="M281.633,2.607c154.6-29.2,252.8,195.1,107.4,261.7c-137.7,63.1-200.4,191.1-290.4,148.5  c-125-59.2-65-138.1-51.8-277.9C61.633-22.693,152.733,26.907,281.633,2.607z"/>
<ellipse style="fill:#473CBA;" cx="418.433" cy="504.007" rx="59" ry="8"/>
<path style="fill:#4B31AA;" d="M408.733,307.207c2.7-1.8,6.1-2.3,9.1-1.5v-81c0-40.9-33.3-74.2-74.2-74.2s-74.2,33.3-74.2,74.2v94.7  c0,35.9-29.2,65-65,65h-5.6c-35.9,0-65-29.2-65-65v-102.2c-2.8,1.3-6.3,1.3-9.1,0.2v102c0,40.9,33.3,74.2,74.2,74.2h5.6  c40.9,0,74.2-33.3,74.2-74.2v-94.7c0-35.9,29.2-65,65-65c35.9,0,65,29.2,65,65V307.207L408.733,307.207z"/>
<path style="fill:#F7931E;" d="M263.533,302.607h14c15.4,0,27.9,12.5,27.9,27.9s-12.5,27.9-27.9,27.9h-14"/>
<circle style="fill:#F9D015;" cx="263.533" cy="330.507" r="27.9"/>
<path style="fill:#4B31AA;" d="M277.433,298.507h-14c-17.6,0-32,14.3-32,32c0,17.6,14.3,32,32,32h14c17.6,0,32-14.3,32-32  C309.433,312.907,295.133,298.507,277.433,298.507z M239.633,330.507c0-13.2,10.7-23.9,23.9-23.9s23.9,10.7,23.9,23.9  c0,13.2-10.7,23.9-23.9,23.9S239.633,343.707,239.633,330.507z M286.633,352.507c5.5-5.7,8.8-13.5,8.8-22s-3.4-16.3-8.8-22  c8.6,3.6,14.7,12.1,14.7,22S295.233,348.907,286.633,352.507z"/>
<path style="fill:#F7931E;" d="M411.033,222.607h14c15.4,0,27.9,12.5,27.9,27.9s-12.5,27.9-27.9,27.9h-14"/>
<circle style="fill:#F9D015;" cx="411.033" cy="250.507" r="27.9"/>
<path style="fill:#4B31AA;" d="M424.933,218.507h-14c-17.6,0-32,14.3-32,32c0,17.6,14.3,32,32,32h14c17.6,0,32-14.3,32-32  S442.633,218.507,424.933,218.507z M387.133,250.507c0-13.2,10.7-23.9,23.9-23.9s23.9,10.7,23.9,23.9c0,13.2-10.7,23.9-23.9,23.9  C397.833,274.307,387.133,263.607,387.133,250.507z M434.133,272.507c5.5-5.7,8.8-13.5,8.8-22c0-8.5-3.4-16.3-8.8-22  c8.6,3.6,14.7,12.1,14.7,22C448.833,260.407,442.733,268.907,434.133,272.507z"/>
<path style="fill:#F7931E;" d="M332.833,134.107h14c15.4,0,27.9,12.5,27.9,27.9s-12.5,28-27.9,28h-14"/>
<circle style="fill:#F9D015;" cx="332.833" cy="162.107" r="27.9"/>
<path style="fill:#4B31AA;" d="M346.833,130.107h-14c-17.6,0-32,14.3-32,32s14.3,32,32,32h14c17.6,0,32-14.3,32-32  C378.733,144.407,364.433,130.107,346.833,130.107z M308.933,162.107c0-13.2,10.7-23.9,23.9-23.9s23.9,10.7,23.9,23.9  s-10.7,23.9-23.9,23.9C319.733,185.907,308.933,175.207,308.933,162.107z M356.033,184.107c5.5-5.7,8.8-13.5,8.8-22  s-3.4-16.3-8.8-22c8.6,3.6,14.7,12.1,14.7,22S364.633,180.507,356.033,184.107z"/>
<path style="fill:#F7931E;" d="M127.133,288.607h14c15.4,0,27.9,12.5,27.9,27.9s-12.5,27.9-27.9,27.9h-14"/>
<circle style="fill:#F9D015;" cx="127.133" cy="316.507" r="27.9"/>
<path style="fill:#4B31AA;" d="M141.133,284.607h-14c-17.6,0-32,14.3-32,32c0,17.6,14.3,32,32,32h14c17.6,0,32-14.3,32-32  S158.733,284.607,141.133,284.607z M103.333,316.507c0-13.2,10.7-23.9,23.9-23.9s23.9,10.7,23.9,23.9c0,13.2-10.7,23.9-23.9,23.9  S103.333,329.707,103.333,316.507z M150.333,338.607c5.5-5.7,8.8-13.5,8.8-22s-3.4-16.3-8.8-22c8.6,3.6,14.7,12.1,14.7,22  C165.033,326.407,158.933,335.007,150.333,338.607z"/>
<polygon style="fill:#6BDDDA;" points="239.533,119.107 20.933,119.107 61.333,63.407 199.133,63.407 "/>
<polygon style="fill:#E1F0FA;" points="130.233,225.807 20.933,119.107 239.533,119.107 "/>
<g>
	<polygon style="fill:#FFFFFF;" points="168.433,119.107 130.233,225.807 91.933,119.107  "/>
	<polygon style="fill:#FFFFFF;" points="199.133,63.407 168.433,119.107 91.933,119.107 61.333,63.407  "/>
</g>
<polygon style="fill:#13CECE;" points="91.933,119.107 130.233,63.907 168.433,119.107 "/>
<path style="fill:#4B31AA;" d="M242.833,116.707l-40.4-55.6c-0.8-1.1-2-1.7-3.3-1.7h-137.8c-1.3,0-2.5,0.6-3.3,1.7l-40.4,55.6  c-0.9,1.2-1,2.9-0.3,4.2c0.2,0.4,0.4,0.7,0.7,1c0,0,0,0,0,0.1l109.3,106.8c0.8,0.8,1.8,1.2,2.8,1.2s2-0.4,2.8-1.2l109.4-106.8  c0,0,0,0,0.1-0.1c0.3-0.3,0.5-0.6,0.7-1C243.833,119.607,243.733,117.907,242.833,116.707z M130.233,213.807l-32.5-90.7h65  L130.233,213.807z M99.733,115.007l30.5-44l30.5,44H99.733z M175.333,115.007l24.3-44l32,44H175.333z M168.133,111.407l-30.4-43.9  h54.6L168.133,111.407z M122.833,67.507l-30.4,43.9l-24.2-43.9C68.234,67.507,122.833,67.507,122.833,67.507z M60.833,71.007  l24.2,44h-56.2L60.833,71.007z M89.133,123.107l31.4,87.5l-89.6-87.5H89.133z M139.933,210.707l31.4-87.5h58.2L139.933,210.707z"/>
<g>
	<path style="fill:#F9D015;" d="M130.233,40.907c-2.2,0-4.1-1.8-4.1-4.1v-14.6c0-2.2,1.8-4.1,4.1-4.1c2.2,0,4.1,1.8,4.1,4.1v14.6   C134.333,39.107,132.433,40.907,130.233,40.907z"/>
	<path style="fill:#F9D015;" d="M95.133,45.407c-1.2,0-2.5-0.6-3.3-1.7l-7.4-10.1c-1.3-1.8-0.9-4.3,0.9-5.7c1.8-1.3,4.3-0.9,5.7,0.9   l7.4,10.1c1.3,1.8,0.9,4.3-0.9,5.7C96.833,45.207,96.033,45.407,95.133,45.407z"/>
	<path style="fill:#F9D015;" d="M165.733,45.407c-0.8,0-1.7-0.3-2.4-0.8c-1.8-1.3-2.2-3.9-0.9-5.7l7.4-10.1c1.3-1.8,3.9-2.2,5.7-0.9   s2.2,3.9,0.9,5.7l-7.4,10.1C168.133,44.907,166.933,45.407,165.733,45.407z"/>
</g>
<path style="fill:#E1F0FA;" d="M262.133,196.407c10.6,7.1,9.7,26.9,9.7,26.9s-18,8.5-28.6,1.4s-18-32.5-18-32.5  S251.533,189.407,262.133,196.407z"/>
<path style="fill:#4B31AA;" d="M253.833,231.607c-4.5,0-9-0.9-12.9-3.5c-11.5-7.7-18.9-32-19.7-34.7c-0.3-1.2-0.1-2.4,0.5-3.4  c0.7-1,1.7-1.6,2.9-1.8c2.8-0.3,28.1-2.8,39.6,4.8l0,0c12.3,8.2,11.5,29.6,11.5,30.5c-0.1,1.5-1,2.9-2.3,3.5  C272.933,227.307,263.633,231.607,253.833,231.607z M230.633,195.907c2.9,8.3,8.6,21.3,14.8,25.5c6.1,4.1,16.7,1.4,22.3-0.7  c-0.2-6-1.8-16.8-7.9-20.9l0,0C253.633,195.607,239.433,195.407,230.633,195.907z"/>
<path style="fill:#E1F0FA;" d="M433.233,188.007c-9.1,8.9-28.4,3.9-28.4,3.9s-4.6-19.4,4.5-28.3c9.1-8.9,35.5-10.9,35.5-10.9  S442.333,179.107,433.233,188.007z"/>
<path style="fill:#4B31AA;" d="M416.533,197.407c-6.7,0-12.2-1.4-12.6-1.5c-1.5-0.4-2.6-1.5-2.9-3c-0.2-0.9-5-21.7,5.6-32.1  c9.8-9.7,35.2-11.9,38-12.1c1.2-0.1,2.4,0.3,3.2,1.2s1.3,2,1.1,3.2c-0.3,2.9-3,28.1-12.9,37.8  C430.833,196.007,423.133,197.407,416.533,197.407z M408.433,188.507c6,1,16.8,1.7,22-3.4c5.4-5.2,8.5-19.1,9.8-27.8  c-8.7,1.2-22.6,4-28,9.3C407.033,171.707,407.433,182.607,408.433,188.507z"/>
<path style="fill:#E1F0FA;" d="M159.133,280.107c-11.5,5.5-28.1-5.4-28.1-5.4s1.9-19.8,13.3-25.3c11.5-5.5,37.1,1,37.1,1  S170.533,274.607,159.133,280.107z"/>
<path style="fill:#4B31AA;" d="M151.733,285.707c-11.2,0-22.4-7.2-23-7.6c-1.3-0.8-2-2.3-1.8-3.8c0.1-0.9,2.3-22.2,15.6-28.6  c12.4-6,37.1,0,39.9,0.7c1.2,0.3,2.1,1.1,2.7,2.2c0.5,1.1,0.5,2.3,0,3.4c-1.2,2.6-11.9,25.7-24.3,31.7  C157.933,285.107,154.833,285.707,151.733,285.707z M135.333,272.607c5.3,2.9,15.4,7,22,3.8l0,0c6.7-3.3,14.1-15.4,18.2-23.2  c-8.6-1.7-22.7-3.5-29.5-0.2C139.433,256.307,136.433,266.707,135.333,272.607z"/>
<path style="fill:#D7ECF9;" d="M433.833,329.807l22.8-25.2h-84.9l22.8,25.2c-33,16.5-57.3,47.8-57.3,87.1  c0,46.8,34.4,61.1,76.9,61.1s76.9-14.3,76.9-61.1C491.133,377.607,466.833,346.307,433.833,329.807z"/>
<path style="fill:#AACFE2;" d="M463.933,351.607l-109.3,109.4c14.1,12.5,35.6,17.1,59.7,17.1c42.5,0,76.9-14.3,76.9-61.1  C491.133,391.107,480.633,368.607,463.933,351.607z"/>
<path style="fill:#4B31AA;" d="M414.233,482.107c-24.2,0-43.2-4.6-56.7-13.7c-16.1-10.9-24.3-28.2-24.3-51.5  c0-36.6,20.4-69.2,54.8-88.3l-19.3-21.3c-1.1-1.2-1.4-2.9-0.7-4.4c0.6-1.5,2.1-2.4,3.7-2.4h84.9c1.6,0,3.1,0.9,3.7,2.4  c0.6,1.5,0.4,3.2-0.7,4.4l-19.3,21.3c34.4,19,54.8,51.7,54.8,88.3c0,23.2-8.2,40.5-24.3,51.5  C457.433,477.507,438.433,482.107,414.233,482.107z M380.933,308.707l16.7,18.4c0.9,0.9,1.2,2.2,1,3.5c-0.2,1.2-1,2.3-2.2,2.9  c-34.5,17.2-55,48.4-55,83.5c0,20.7,6.8,35.3,20.7,44.8c12.1,8.2,29.6,12.3,52.1,12.3s40.1-4.1,52.1-12.3  c14-9.5,20.7-24.1,20.7-44.8c0-35.1-20.6-66.3-55.1-83.5c-1.1-0.6-1.9-1.6-2.2-2.9c-0.2-1.2,0.1-2.5,1-3.5l16.7-18.4H380.933z"/>
<path style="fill:#5584C9;" d="M444.433,325.207h-63.9c-2.2,0-4.1,1.8-4.1,4.1s1.8,4.1,4.1,4.1h28.4l-12.3,31.9  c-0.8,2.1,0.2,4.4,2.3,5.2c0.5,0.2,1,0.3,1.5,0.3c1.6,0,3.2-1,3.8-2.6l10.7-27.7l13.6,28c1,2,3.4,2.9,5.4,1.9s2.9-3.4,1.9-5.4  l-15.3-31.6h24c2.2,0,4.1-1.8,4.1-4.1C448.533,327.007,446.733,325.207,444.433,325.207z"/>
<g>
</g>
<g>
</g>
<g>
</g>
<g>
</g>
<g>
</g>
<g>
</g>
<g>
</g>
<g>
</g>
<g>
</g>
<g>
</g>
<g>
</g>
<g>
</g>
<g>
</g>
<g>
</g>
<g>
</g>
</svg>