<?xml version="1.0" encoding="windows-1252"?>
<!-- Generator: Adobe Illustrator 19.0.0, SVG Export Plug-In . SVG Version: 6.00 Build 0)  -->
<svg xmlns="http://www.w3.org/2000/svg" xmlns:xlink="http://www.w3.org/1999/xlink" version="1.1" id="Capa_1" x="0px" y="0px" viewBox="0 0 512.001 512.001" style="enable-background:new 0 0 512.001 512.001;" xml:space="preserve">
<path style="fill:#79A1E8;" d="M98.089,337.976C-49.288,349.888-13.814,51.901,134.022,49.353  c193.402-3.334,227.027-77.427,293.238-37.647c77.738,46.705,50.55,105.128-11.39,262.96  C361.855,412.304,274.874,323.688,98.089,337.976z"/>
<rect x="133.459" y="139.451" style="fill:#FFFFFF;" width="135.38" height="318.601"/>
<polygon style="fill:#CFDDF7;" points="133.459,336.483 133.459,458.052 268.838,458.052 268.838,201.103 "/>
<rect x="255.817" y="139.451" style="fill:#473CBA;" width="53.948" height="318.601"/>
<rect x="157.561" y="176.774" style="fill:#7693DD;" width="31.215" height="17.644"/>
<path style="fill:#4B31AA;" d="M188.777,198.489h-31.216c-2.249,0-4.072-1.823-4.072-4.072v-17.643c0-2.249,1.823-4.072,4.072-4.072  h31.216c2.249,0,4.072,1.823,4.072,4.072v17.643C192.849,196.666,191.026,198.489,188.777,198.489z M161.633,190.346h23.073v-9.5  h-23.073V190.346z"/>
<rect x="157.561" y="219.865" style="fill:#7693DD;" width="31.215" height="17.644"/>
<path style="fill:#4B31AA;" d="M188.777,241.58h-31.216c-2.249,0-4.072-1.823-4.072-4.072v-17.643c0-2.249,1.823-4.072,4.072-4.072  h31.216c2.249,0,4.072,1.823,4.072,4.072v17.643C192.849,239.756,191.026,241.58,188.777,241.58z M161.633,233.436h23.073v-9.5  h-23.073V233.436z"/>
<g>
	<rect x="160.942" y="387.478" style="fill:#7693DD;" width="64.805" height="70.574"/>
	<rect x="201.148" y="176.774" style="fill:#7693DD;" width="31.215" height="17.644"/>
</g>
<path style="fill:#4B31AA;" d="M232.364,198.489h-31.216c-2.249,0-4.072-1.823-4.072-4.072v-17.643c0-2.249,1.823-4.072,4.072-4.072  h31.216c2.249,0,4.072,1.823,4.072,4.072v17.643C236.435,196.666,234.612,198.489,232.364,198.489z M205.22,190.346h23.073v-9.5  H205.22V190.346z"/>
<rect x="201.148" y="219.865" style="fill:#7693DD;" width="31.215" height="17.644"/>
<path style="fill:#4B31AA;" d="M232.364,241.58h-31.216c-2.249,0-4.072-1.823-4.072-4.072v-17.643c0-2.249,1.823-4.072,4.072-4.072  h31.216c2.249,0,4.072,1.823,4.072,4.072v17.643C236.435,239.756,234.612,241.58,232.364,241.58z M205.22,233.436h23.073v-9.5  H205.22V233.436z"/>
<rect x="194.545" y="110.951" style="fill:#7693DD;" width="71.592" height="28.502"/>
<rect x="173.169" y="110.951" style="fill:#D7ECF9;" width="71.592" height="28.502"/>
<path style="fill:#4B31AA;" d="M309.765,135.38h-39.557V110.95c0-2.249-1.823-4.072-4.072-4.072h-92.968  c-2.249,0-4.072,1.823-4.072,4.072v24.429h-35.639c-2.249,0-4.072,1.823-4.072,4.072v318.601c0,2.249,1.823,4.072,4.072,4.072  h176.307c2.249,0,4.072-1.823,4.072-4.072V139.451C313.837,137.203,312.014,135.38,309.765,135.38z M248.833,115.022h13.233v20.358  h-0.703h-5.546h-6.984V115.022z M177.241,115.022h28.91h34.54v20.358h-33.393H177.24L177.241,115.022L177.241,115.022z   M189.273,453.98h-24.26v-62.43h24.26V453.98z M221.676,453.98h-24.259v-62.43h24.259V453.98z M251.746,453.98h-21.926v-66.502  c0-2.249-1.823-4.072-4.072-4.072h-64.806c-2.249,0-4.072,1.823-4.072,4.072v66.502h-19.34V143.523h114.216L251.746,453.98  L251.746,453.98z M305.694,453.98h-45.805V143.523h45.805V453.98z"/>
<g>
	<ellipse style="fill:#473CBA;" cx="76.798" cy="498.703" rx="38.916" ry="6.617"/>
	<ellipse style="fill:#473CBA;" cx="383.029" cy="505.384" rx="92.237" ry="6.617"/>
</g>
<rect x="354.851" y="176.774" style="fill:#FFFFFF;" width="114.667" height="281.277"/>
<polygon style="fill:#CFDDF7;" points="354.85,320.705 354.85,458.052 469.517,458.052 469.517,206.038 "/>
<rect x="458.489" y="176.774" style="fill:#79A1E8;" width="45.694" height="281.277"/>
<path style="fill:#4B31AA;" d="M504.183,462.123c2.249,0,4.072-1.823,4.072-4.072V176.774c0-2.249-1.823-4.072-4.072-4.072H354.85  c-2.249,0-4.072,1.823-4.072,4.072v281.277c0,2.249,1.823,4.072,4.072,4.072L504.183,462.123L504.183,462.123z M358.922,180.846  h95.495V453.98h-95.495L358.922,180.846L358.922,180.846z M500.111,453.98H462.56V180.846h37.552V453.98z"/>
<rect x="375.35" y="261.03" style="fill:#7693DD;" width="59.982" height="17.644"/>
<path style="fill:#4B31AA;" d="M435.333,282.745H375.35c-2.249,0-4.072-1.823-4.072-4.072V261.03c0-2.249,1.823-4.072,4.072-4.072  h59.983c2.249,0,4.072,1.823,4.072,4.072v17.643C439.405,280.921,437.582,282.745,435.333,282.745z M379.422,274.602h51.84v-9.5  h-51.84V274.602z"/>
<rect x="375.35" y="218.279" style="fill:#7693DD;" width="59.982" height="17.644"/>
<path style="fill:#4B31AA;" d="M435.333,239.993H375.35c-2.249,0-4.072-1.823-4.072-4.072v-17.643c0-2.249,1.823-4.072,4.072-4.072  h59.983c2.249,0,4.072,1.823,4.072,4.072v17.643C439.405,238.17,437.582,239.993,435.333,239.993z M379.422,231.85h51.84v-9.5  h-51.84V231.85z"/>
<rect x="293.671" y="301.989" style="fill:#FFFFFF;" width="135.38" height="175.513"/>
<polygon style="fill:#CFDDF7;" points="293.671,471.459 293.671,477.501 429.051,477.501 429.051,336.08 "/>
<rect x="416.03" y="301.989" style="fill:#473CBA;" width="53.948" height="175.513"/>
<rect x="313.901" y="329.228" style="fill:#7693DD;" width="79.056" height="17.644"/>
<path style="fill:#4B31AA;" d="M392.957,350.943h-79.057c-2.249,0-4.072-1.823-4.072-4.072v-17.643c0-2.249,1.823-4.072,4.072-4.072  h79.057c2.249,0,4.072,1.823,4.072,4.072v17.643C397.029,349.12,395.206,350.943,392.957,350.943z M317.972,342.8h70.914v-9.5  h-70.914V342.8z"/>
<rect x="313.901" y="361.8" style="fill:#7693DD;" width="79.056" height="17.644"/>
<path style="fill:#4B31AA;" d="M392.957,383.516h-79.057c-2.249,0-4.072-1.823-4.072-4.072v-17.643c0-2.249,1.823-4.072,4.072-4.072  h79.057c2.249,0,4.072,1.823,4.072,4.072v17.643C397.029,381.693,395.206,383.516,392.957,383.516z M317.972,375.373h70.914v-9.5  h-70.914V375.373z"/>
<rect x="335.213" y="406.927" style="fill:#F9D015;" width="36.433" height="70.574"/>
<polygon style="fill:#DDB510;" points="335.213,459.097 335.213,477.501 371.645,477.501 371.645,422.665 "/>
<path style="fill:#4B31AA;" d="M469.978,297.917H293.671c-2.249,0-4.072,1.823-4.072,4.072v175.513c0,2.249,1.823,4.072,4.072,4.072  h176.307c2.249,0,4.072-1.823,4.072-4.072V301.988C474.05,299.74,472.227,297.917,469.978,297.917z M339.284,473.43v-62.43h28.289  v62.43H339.284z M411.958,473.43h-36.242v-66.502c0-2.249-1.823-4.072-4.072-4.072h-36.432c-2.249,0-4.072,1.823-4.072,4.072v66.502  h-33.399V306.06h114.216L411.958,473.43L411.958,473.43z M465.907,473.43h-45.805V306.06h45.805V473.43z"/>
<rect x="59.505" y="377.639" style="fill:#F7931E;" width="38.68" height="80.413"/>
<circle style="fill:#E1F0FA;" cx="79.62" cy="335.876" r="71.253"/>
<path style="fill:#B6CFDD;" d="M128,283.583L27.327,384.255c13.015,14.061,31.622,22.873,52.293,22.873  c39.352,0,71.252-31.901,71.252-71.252C150.872,315.204,142.061,296.598,128,283.583z"/>
<path style="fill:#4B31AA;" d="M154.943,335.876c0-41.534-33.79-75.324-75.324-75.324s-75.324,33.79-75.324,75.324  c0,33.074,21.437,61.217,51.138,71.318v50.858c0,2.249,1.823,4.072,4.072,4.072h38.68c2.249,0,4.072-1.823,4.072-4.072v-50.333  C132.763,398.085,154.943,369.524,154.943,335.876z M94.113,453.98H63.577v-44.517c5.173,1.127,10.537,1.737,16.043,1.737  c4.958,0,9.801-0.495,14.494-1.414L94.113,453.98L94.113,453.98z M79.619,403.057c-37.044,0-67.181-30.137-67.181-67.181  s30.137-67.181,67.181-67.181s67.181,30.137,67.181,67.181S116.663,403.057,79.619,403.057z"/>
<path style="fill:#F9D015;" d="M375.039,72.959c-37.103,0-67.181,30.078-67.181,67.181c0,50.895,67.181,118.076,67.181,118.076  s67.181-61.074,67.181-118.076C442.219,103.037,412.141,72.959,375.039,72.959z M375.039,160.497  c-11.243,0-20.358-9.115-20.358-20.358c0-11.243,9.115-20.358,20.358-20.358c11.243,0,20.358,9.115,20.358,20.358  S386.282,160.497,375.039,160.497z"/>
<path style="fill:#DDB510;" d="M425.75,96.104l-33.386,33.386c1.91,3.101,3.032,6.74,3.032,10.65  c0,11.243-9.115,20.358-20.358,20.358c-3.91,0-7.549-1.122-10.65-3.032l-37.94,37.94c19.883,34.1,48.59,62.81,48.59,62.81  s67.181-61.074,67.181-118.076C442.219,123.287,436,107.897,425.75,96.104z"/>
<g>
	<path style="fill:#4B31AA;" d="M375.039,68.887c-39.288,0-71.253,31.964-71.253,71.252c0,51.983,65.582,118.163,68.374,120.954   c0.472,0.472,1.038,0.783,1.634,0.979c0.081,0.027,1.02,0.214,1.245,0.214h10.857c1.013,0,1.989-0.378,2.739-1.059   c2.798-2.544,68.514-62.953,68.514-121.089c0-39.288-31.964-71.252-71.252-71.252H375.039z M375.161,252.475   c-12.507-13.216-63.232-69.471-63.232-112.336c0-34.798,28.311-63.109,63.109-63.109s63.109,28.311,63.109,63.109   C438.148,188.042,387.826,240.128,375.161,252.475z"/>
	<path style="fill:#4B31AA;" d="M399.468,140.139c0-13.47-10.959-24.429-24.429-24.429c-13.47,0-24.43,10.959-24.43,24.429   c0,13.47,10.959,24.429,24.43,24.429C388.509,164.569,399.468,153.609,399.468,140.139z M380.467,155.475   c-6.315-2.243-10.858-8.262-10.858-15.336s4.543-13.093,10.858-15.336c6.315,2.243,10.858,8.262,10.858,15.336   C391.325,147.214,386.782,153.232,380.467,155.475z"/>
</g>
<g>
</g>
<g>
</g>
<g>
</g>
<g>
</g>
<g>
</g>
<g>
</g>
<g>
</g>
<g>
</g>
<g>
</g>
<g>
</g>
<g>
</g>
<g>
</g>
<g>
</g>
<g>
</g>
<g>
</g>
</svg>