<?xml version="1.0" encoding="windows-1252"?>
<!-- Generator: Adobe Illustrator 19.0.0, SVG Export Plug-In . SVG Version: 6.00 Build 0)  -->
<svg xmlns="http://www.w3.org/2000/svg" xmlns:xlink="http://www.w3.org/1999/xlink" version="1.1" id="Capa_1" x="0px" y="0px" viewBox="0 0 511.999 511.999" style="enable-background:new 0 0 511.999 511.999;" xml:space="preserve">
<path style="fill:#79A1E8;" d="M64.909,251.393C40.189,276.214,40.106,305.83,96.189,345  c63.652,44.457,209.17-49.938,265.212-26.352c56.042,23.586,191.119,0.568,106.109-131.368  C400.816,83.772,441.869,14.846,334.898,1.23s-213.969,88.751-209.99,160.163C128.888,232.805,87.876,228.332,64.909,251.393z"/>
<path style="fill:#473CBA;" d="M322.447,387.231H63.729c-14.034,0-25.411-11.377-25.411-25.411V102.272  c0-14.034,11.377-25.411,25.411-25.411h258.718c14.034,0,25.411,11.377,25.411,25.411v259.547  C347.859,375.854,336.482,387.231,322.447,387.231z"/>
<path style="fill:#D7ECF9;" d="M305.251,387.231H46.532c-14.034,0-25.411-11.377-25.411-25.411V102.272  c0-14.034,11.377-25.411,25.411-25.411h258.718c14.034,0,25.411,11.377,25.411,25.411v259.547  C330.662,375.854,319.285,387.231,305.251,387.231z"/>
<path style="fill:#B3D4E5;" d="M305.251,76.861h-5.899l-278.23,278.23v6.729c0,14.034,11.377,25.412,25.411,25.412h258.718  c14.034,0,25.411-11.377,25.411-25.412V102.272C330.662,88.238,319.285,76.861,305.251,76.861z"/>
<path style="fill:#F9D015;" d="M330.662,102.272c0-14.034-11.377-25.411-25.411-25.411H46.532  c-14.034,0-25.411,11.377-25.411,25.411v16.92h309.541V102.272z"/>
<path style="fill:#FBB03B;" d="M330.662,102.272c0-14.034-11.377-25.411-25.411-25.411h-5.899l-42.331,42.331h73.642V102.272z"/>
<g>
	<path style="fill:#4B31AA;" d="M322.447,72.86H46.533c-16.218,0-29.412,13.193-29.412,29.411v16.921v242.627   c0,16.218,13.194,29.411,29.412,29.411h258.718h17.196c16.218,0,29.412-13.193,29.412-29.411V102.271   C351.859,86.054,338.665,72.86,322.447,72.86z M25.121,102.271c0-11.806,9.605-21.411,21.412-21.411h258.718   c11.806,0,21.411,9.605,21.411,21.411v12.921H25.121V102.271z M46.533,383.23c-11.807,0-21.412-9.605-21.412-21.411V123.192   h301.541v238.627c0,11.806-9.605,21.411-21.411,21.411L46.533,383.23L46.533,383.23z M343.859,361.819   c0,10.709-7.912,19.582-18.194,21.142c5.541-5.352,8.996-12.849,8.996-21.142V119.192v-16.921c0-8.294-3.456-15.791-8.996-21.142   c10.281,1.56,18.194,10.432,18.194,21.142V361.819z"/>
	<path style="fill:#4B31AA;" d="M51.216,90.058c-4.576,0-8.299,3.723-8.299,8.299c0,4.576,3.723,8.299,8.299,8.299   s8.299-3.723,8.299-8.299C59.514,93.78,55.792,90.058,51.216,90.058z"/>
	<path style="fill:#4B31AA;" d="M77.01,90.058c-4.576,0-8.299,3.723-8.299,8.299c0,4.576,3.723,8.299,8.299,8.299   c4.576,0,8.299-3.723,8.299-8.299C85.309,93.78,81.587,90.058,77.01,90.058z"/>
	<path style="fill:#4B31AA;" d="M102.805,90.058c-4.576,0-8.299,3.723-8.299,8.299c0,4.576,3.723,8.299,8.299,8.299   c4.576,0,8.3-3.723,8.3-8.299C111.105,93.78,107.382,90.058,102.805,90.058z"/>
</g>
<path style="fill:#79A1E8;" d="M170.545,229H71.879c-9.573,0-17.333-7.76-17.333-17.333l0,0c0-9.573,7.76-17.333,17.333-17.333  h98.667c9.573,0,17.333,7.76,17.333,17.333l0,0C187.879,221.24,180.118,229,170.545,229z"/>
<path style="fill:#4B31AA;" d="M170.546,233H71.879c-11.763,0-21.333-9.57-21.333-21.333c0-11.764,9.57-21.334,21.333-21.334h98.667  c11.763,0,21.333,9.57,21.333,21.334C191.879,223.43,182.308,233,170.546,233z M71.879,198.333c-7.352,0-13.333,5.981-13.333,13.334  c0,7.352,5.981,13.333,13.333,13.333h98.667c7.352,0,13.333-5.981,13.333-13.333c0-7.352-5.981-13.334-13.333-13.334H71.879z"/>
<path style="fill:#79A1E8;" d="M170.545,278.333H71.879c-9.573,0-17.333-7.76-17.333-17.333l0,0c0-9.573,7.76-17.333,17.333-17.333  h98.667c9.573,0,17.333,7.76,17.333,17.333l0,0C187.879,270.573,180.118,278.333,170.545,278.333z"/>
<path style="fill:#4B31AA;" d="M170.546,282.333H71.879c-11.763,0-21.333-9.57-21.333-21.333c0-11.763,9.57-21.333,21.333-21.333  h98.667c11.763,0,21.333,9.57,21.333,21.333C191.879,272.763,182.308,282.333,170.546,282.333z M71.879,247.667  c-7.352,0-13.333,5.981-13.333,13.333c0,7.352,5.981,13.333,13.333,13.333h98.667c7.352,0,13.333-5.981,13.333-13.333  c0-7.352-5.981-13.333-13.333-13.333H71.879z"/>
<path style="fill:#F7931E;" d="M171.377,319.396H120.38c-7.183,0-13.006-5.823-13.006-13.005l0,0  c0-7.183,5.823-13.005,13.006-13.005h50.997c7.183,0,13.005,5.823,13.005,13.005l0,0  C184.382,313.573,178.56,319.396,171.377,319.396z"/>
<g>
	<path style="fill:#4B31AA;" d="M171.377,323.397h-50.996c-9.377,0-17.006-7.629-17.006-17.006c0-9.377,7.629-17.006,17.006-17.006   h50.996c9.377,0,17.006,7.629,17.006,17.006C188.382,315.767,180.754,323.397,171.377,323.397z M120.381,297.385   c-4.966,0-9.006,4.04-9.006,9.006c0,4.966,4.04,9.006,9.006,9.006h50.996c4.966,0,9.006-4.04,9.006-9.006   c0-4.966-4.04-9.006-9.006-9.006H120.381z"/>
	<path style="fill:#4B31AA;" d="M131.879,216H72.546c-2.209,0-4-1.791-4-4c0-2.209,1.791-4,4-4h59.333c2.209,0,4,1.791,4,4   C135.879,214.209,134.088,216,131.879,216z"/>
	<path style="fill:#4B31AA;" d="M73.129,265.25h-0.583c-2.209,0-4-1.791-4-4c0-2.209,1.791-4,4-4h0.583c2.209,0,4,1.791,4,4   C77.129,263.459,75.338,265.25,73.129,265.25z"/>
	<path style="fill:#4B31AA;" d="M89.195,265.25h-0.583c-2.209,0-4-1.791-4-4c0-2.209,1.791-4,4-4h0.583c2.209,0,4,1.791,4,4   C93.195,263.459,91.404,265.25,89.195,265.25z"/>
	<path style="fill:#4B31AA;" d="M105.262,265.25h-0.584c-2.209,0-4-1.791-4-4c0-2.209,1.791-4,4-4h0.584c2.209,0,4,1.791,4,4   C109.262,263.459,107.471,265.25,105.262,265.25z"/>
	<path style="fill:#4B31AA;" d="M121.329,265.25h-0.584c-2.209,0-4-1.791-4-4c0-2.209,1.791-4,4-4h0.584c2.209,0,4,1.791,4,4   C125.329,263.459,123.538,265.25,121.329,265.25z"/>
	<path style="fill:#4B31AA;" d="M137.395,265.25h-0.583c-2.209,0-4-1.791-4-4c0-2.209,1.791-4,4-4h0.583c2.209,0,4,1.791,4,4   C141.395,263.459,139.604,265.25,137.395,265.25z"/>
	<path style="fill:#4B31AA;" d="M153.462,265.25h-0.583c-2.209,0-4-1.791-4-4c0-2.209,1.791-4,4-4h0.583c2.209,0,4,1.791,4,4   C157.462,263.459,155.671,265.25,153.462,265.25z"/>
</g>
<g>
	<ellipse style="fill:#473CBA;" cx="346.491" cy="502.764" rx="81" ry="9.235"/>
	<ellipse style="fill:#473CBA;" cx="181.685" cy="434" rx="157.806" ry="8"/>
	<path style="fill:#473CBA;" d="M425.062,442.692H292.874c-11.129,0-20.151-9.022-20.151-20.151V276.754h172.489v145.787   C445.213,433.671,436.191,442.692,425.062,442.692z"/>
</g>
<path style="fill:#FFFFFF;" d="M397.657,442.692H265.469c-11.129,0-20.151-9.022-20.151-20.151V276.754h172.489v145.787  C417.808,433.671,408.786,442.692,397.657,442.692z"/>
<path style="fill:#CFDDF7;" d="M390.791,276.754L245.319,422.227v0.315c0,11.129,9.022,20.151,20.151,20.151h132.188  c11.129,0,20.15-9.022,20.15-20.151V276.754H390.791z"/>
<path style="fill:#473CBA;" d="M345.018,153.99L345.018,153.99c-33.468,0-60.598,27.131-60.598,60.598v62.167h27.761v-61.807  c0-18.135,14.701-32.837,32.837-32.837l0,0c18.135,0,32.837,14.702,32.837,32.837v61.807h27.761v-62.167  C405.616,181.12,378.485,153.99,345.018,153.99z"/>
<path style="fill:#FBB03B;" d="M337.352,153.99L337.352,153.99c-33.467,0-60.598,27.131-60.598,60.598v62.167h27.761v-61.807  c0-18.135,14.701-32.837,32.837-32.837l0,0c18.135,0,32.837,14.702,32.837,32.837v61.807h27.761v-62.167  C397.95,181.12,370.819,153.99,337.352,153.99z"/>
<path style="fill:#4B31AA;" d="M425.062,446.692c13.316,0,24.15-10.834,24.15-24.15V276.754c0-2.209-1.791-4-4-4h-35.597v-58.166  c0-35.62-28.978-64.599-64.598-64.599h-7.666c-35.62,0-64.599,28.978-64.599,64.599v58.166h-27.435c-2.209,0-4,1.791-4,4v145.788  c0,13.316,10.834,24.15,24.15,24.15L425.062,446.692L425.062,446.692z M341.213,158.098c29.412,1.993,52.737,26.58,52.737,56.49  v58.166h-3.702h-16.058v-57.807c0-15.15-9.043-28.56-22.297-33.84c-3.448-1.374-8.566-3.137-14.54-2.997  c-20.306,0.475-36.837,16.525-36.837,36.837v57.807h-3.838h-11.269h-4.655v-58.166c0-30.276,23.895-55.035,53.817-56.49  L341.213,158.098L341.213,158.098z M316.181,214.947c0-14.6,10.91-26.693,25.004-28.574c14.094,1.881,25.004,13.974,25.004,28.574  v57.807h-50.008V214.947z M413.808,280.754v141.788c0,8.905-7.245,16.15-16.151,16.15H265.469c-8.905,0-16.15-7.245-16.15-16.15  V280.754H413.808z M441.212,422.542c0,8.905-7.245,16.15-16.15,16.15h-9.467c3.859-4.282,6.213-9.946,6.213-16.15V280.754h19.404  V422.542z"/>
<path style="fill:#F9D015;" d="M374.374,373.758h-86.729c-11.949,0-21.635-9.687-21.635-21.635l0,0  c0-11.949,9.687-21.635,21.635-21.635h86.729c11.949,0,21.635,9.686,21.635,21.635l0,0  C396.009,364.072,386.323,373.758,374.374,373.758z"/>
<path style="fill:#FBB03B;" d="M374.374,330.487h-37.316l-43.271,43.271h80.587c11.949,0,21.636-9.687,21.636-21.636  C396.01,340.174,386.323,330.487,374.374,330.487z"/>
<g>
	<path style="fill:#4B31AA;" d="M374.374,377.758h-86.728c-14.136,0-25.636-11.5-25.636-25.635c0-14.136,11.5-25.636,25.636-25.636   h86.728c14.136,0,25.636,11.5,25.636,25.636C400.009,366.258,388.509,377.758,374.374,377.758z M287.645,334.487   c-9.725,0-17.636,7.911-17.636,17.636c0,9.724,7.911,17.635,17.636,17.635h86.729c9.725,0,17.636-7.911,17.636-17.635   c0-9.725-7.911-17.636-17.636-17.636H287.645z"/>
	<path style="fill:#4B31AA;" d="M298.271,353.595l-1.996-1.152l1.996-1.152c1.435-0.828,1.927-2.663,1.098-4.098   c-0.827-1.435-2.661-1.928-4.098-1.098l-1.995,1.152v-2.304c0-1.657-1.343-3-3-3c-1.657,0-3,1.343-3,3v2.304l-1.995-1.152   c-1.436-0.83-3.269-0.337-4.098,1.098c-0.829,1.435-0.337,3.269,1.098,4.098l1.996,1.152l-1.996,1.152   c-1.435,0.828-1.927,2.663-1.098,4.098c0.556,0.963,1.564,1.501,2.601,1.501c0.509,0,1.024-0.13,1.497-0.403l1.995-1.152v2.304   c0,1.657,1.343,3,3,3c1.657,0,3-1.343,3-3v-2.304l1.995,1.152c0.473,0.273,0.988,0.403,1.497,0.403   c1.037,0,2.045-0.538,2.601-1.501C300.198,356.258,299.706,354.423,298.271,353.595z"/>
	<path style="fill:#4B31AA;" d="M325.32,353.595l-1.996-1.152l1.996-1.152c1.435-0.828,1.927-2.663,1.098-4.098   c-0.827-1.435-2.661-1.928-4.098-1.098l-1.995,1.152v-2.304c0-1.657-1.343-3-3-3c-1.657,0-3,1.343-3,3v2.304l-1.995-1.152   c-1.435-0.83-3.269-0.337-4.098,1.098c-0.829,1.435-0.337,3.269,1.098,4.098l1.996,1.152l-1.996,1.152   c-1.435,0.828-1.927,2.663-1.098,4.098c0.556,0.963,1.564,1.501,2.601,1.501c0.509,0,1.024-0.13,1.497-0.403l1.995-1.152v2.304   c0,1.657,1.343,3,3,3c1.657,0,3-1.343,3-3v-2.304l1.995,1.152c0.473,0.273,0.988,0.403,1.497,0.403   c1.037,0,2.045-0.538,2.601-1.501C327.247,356.258,326.755,354.423,325.32,353.595z"/>
	<path style="fill:#4B31AA;" d="M352.369,353.595l-1.996-1.152l1.996-1.152c1.435-0.828,1.927-2.663,1.098-4.098   c-0.827-1.435-2.661-1.928-4.098-1.098l-1.995,1.152v-2.304c0-1.657-1.343-3-3-3c-1.657,0-3,1.343-3,3v2.304l-1.995-1.152   c-1.435-0.83-3.269-0.337-4.098,1.098c-0.829,1.435-0.337,3.269,1.098,4.098l1.996,1.152l-1.996,1.152   c-1.435,0.828-1.927,2.663-1.098,4.098c0.556,0.963,1.564,1.501,2.601,1.501c0.509,0,1.024-0.13,1.497-0.403l1.995-1.152v2.304   c0,1.657,1.343,3,3,3c1.657,0,3-1.343,3-3v-2.304l1.995,1.152c0.473,0.273,0.988,0.403,1.497,0.403   c1.037,0,2.045-0.538,2.601-1.501C354.296,356.258,353.803,354.423,352.369,353.595z"/>
	<path style="fill:#4B31AA;" d="M379.418,353.595l-1.996-1.152l1.996-1.152c1.435-0.828,1.927-2.663,1.098-4.098   c-0.827-1.435-2.661-1.928-4.098-1.098l-1.995,1.152v-2.304c0-1.657-1.343-3-3-3c-1.657,0-3,1.343-3,3v2.304l-1.995-1.152   c-1.435-0.83-3.269-0.337-4.098,1.098c-0.829,1.435-0.337,3.269,1.098,4.098l1.996,1.152l-1.996,1.152   c-1.435,0.828-1.927,2.663-1.098,4.098c0.556,0.963,1.564,1.501,2.601,1.501c0.509,0,1.024-0.13,1.497-0.403l1.995-1.152v2.304   c0,1.657,1.343,3,3,3c1.657,0,3-1.343,3-3v-2.304l1.995,1.152c0.473,0.273,0.988,0.403,1.497,0.403   c1.037,0,2.045-0.538,2.601-1.501C381.344,356.258,380.852,354.423,379.418,353.595z"/>
</g>
<g>
</g>
<g>
</g>
<g>
</g>
<g>
</g>
<g>
</g>
<g>
</g>
<g>
</g>
<g>
</g>
<g>
</g>
<g>
</g>
<g>
</g>
<g>
</g>
<g>
</g>
<g>
</g>
<g>
</g>
</svg>