<?xml version="1.0" encoding="windows-1252"?>
<!-- Generator: Adobe Illustrator 19.0.0, SVG Export Plug-In . SVG Version: 6.00 Build 0)  -->
<svg xmlns="http://www.w3.org/2000/svg" xmlns:xlink="http://www.w3.org/1999/xlink" version="1.1" id="Capa_1" x="0px" y="0px" viewBox="0 0 511.999 511.999" style="enable-background:new 0 0 511.999 511.999;" xml:space="preserve">
<path style="fill:#79A1E8;" d="M62.185,134.945C20.309,160.071,1.573,201.904,47.528,268.95s158.941,55.713,190.539,110.973  s176.746,48.994,202.33-113.318c17.886-113.48,42.826-155.55-18.478-214.037C340.236-25.361,216.861-9.25,174.747,52.663  S109.053,106.824,62.185,134.945z"/>
<g>
	<ellipse style="fill:#473CBA;" cx="321.857" cy="482.208" rx="108.319" ry="6.76"/>
	<ellipse style="fill:#473CBA;" cx="119.279" cy="505.239" rx="88.988" ry="6.76"/>
</g>
<path style="fill:#7693DD;" d="M500.843,347.479c0,13.248-10.74,23.987-23.987,23.987h-27.327c-13.248,0-23.987-10.74-23.987-23.987  V142.22c0-13.248,10.74-23.987,23.987-23.987h27.327c13.248,0,23.987,10.74,23.987,23.987L500.843,347.479L500.843,347.479z"/>
<g>
	<path style="fill:#FFFFFF;" d="M480.742,141.309c0-12.745-10.332-23.076-23.076-23.076H194.354   c-12.745,0-23.321,10.332-23.321,23.076v150.604h309.71L480.742,141.309L480.742,141.309z"/>
	<path style="fill:#FFFFFF;" d="M171.032,291.913v56.26c0,12.745,10.577,23.293,23.321,23.293h263.312   c12.745,0,23.076-10.548,23.076-23.293v-56.26H171.032z"/>
	<path style="fill:#FFFFFF;" d="M171.032,291.913v56.26c0,12.745,10.577,23.293,23.321,23.293h103.825l79.553-79.553   L171.032,291.913L171.032,291.913z"/>
</g>
<path style="fill:#CFDDF7;" d="M377.732,291.913l-79.553,79.553h159.487c12.745,0,23.076-10.548,23.076-23.293v-56.26  L377.732,291.913L377.732,291.913z"/>
<circle style="fill:#FFFFFF;" cx="326.01" cy="324.706" r="12.752"/>
<path style="fill:#4B31AA;" d="M326.01,341.646c-9.341,0-16.941-7.599-16.941-16.94c0-9.341,7.599-16.941,16.941-16.941  s16.941,7.599,16.941,16.941C342.951,334.047,335.352,341.646,326.01,341.646z M326.01,316.141c-4.723,0-8.566,3.842-8.566,8.565  c0,4.722,3.842,8.564,8.566,8.564s8.566-3.842,8.566-8.564C334.576,319.983,330.733,316.141,326.01,316.141z"/>
<polygon style="fill:#FFFFFF;" points="393.902,416.405 313.742,416.405 305.24,371.466 385.4,371.466 "/>
<polygon style="fill:#D7ECF9;" points="377.506,416.405 277.631,416.405 288.844,371.466 369.004,371.466 "/>
<path style="fill:#FFFFFF;" d="M416.666,422.781c0-3.522-3.908-6.376-8.73-6.376H255.793c-4.821,0-8.73,2.855-8.73,6.376l0,0  c0,3.522,3.908,6.376,8.73,6.376h152.144C412.758,429.158,416.666,426.303,416.666,422.781L416.666,422.781z"/>
<rect x="188.436" y="134.602" style="fill:#79A1E8;" width="276.704" height="155.312"/>
<polygon style="fill:#5C82C6;" points="465.139,134.602 418.75,134.602 263.439,289.913 465.139,289.913 "/>
<path style="fill:#4B31AA;" d="M476.856,114.045H194.354c-15.169,0-27.509,12.231-27.509,27.264v206.865  c0,15.153,12.34,27.48,27.509,27.48h89.128l-9.123,36.563h-18.567c-7.244,0-12.918,4.641-12.918,10.564  c0,5.924,5.674,10.564,12.918,10.564h152.143c7.244,0,12.918-4.641,12.918-10.564c0-5.924-5.674-10.564-12.918-10.564h-10.564  l-6.917-36.563h86.401c15.536,0,28.175-12.639,28.175-28.175V142.22C505.03,126.684,492.392,114.045,476.856,114.045z   M175.22,141.309c0-10.415,8.584-18.888,19.134-18.888h262.934h0.377c10.416,0,18.889,8.474,18.889,18.888v146.417h-7.228V134.601  c0-2.313-1.875-4.188-4.188-4.188H188.436c-2.313,0-4.188,1.875-4.188,4.188v153.125h-9.028V141.309z M192.623,285.725V138.789  h268.328v146.936H192.623z M175.22,348.174v-52.073h301.335v52.073c0,10.535-8.474,19.104-18.889,19.104H194.354  C183.982,367.278,175.22,358.53,175.22,348.174z M292.115,375.654h73.419l6.917,36.563h-89.459L292.115,375.654z M412.479,422.781  c0,0.751-1.769,2.189-4.542,2.189H255.793c-2.774,0-4.542-1.438-4.542-2.189c0-0.751,1.769-2.189,4.542-2.189h21.838h51.888h47.987  h16.396h14.034C410.71,420.592,412.479,422.03,412.479,422.781z M388.847,412.217h-7.871l-6.917-36.563h7.871L388.847,412.217z   M496.655,347.479c0,10.782-8.668,19.563-19.399,19.779c4.746-4.947,7.675-11.675,7.675-19.084V141.309  c0-7.316-2.902-13.963-7.609-18.865c10.701,0.251,19.334,9.016,19.334,19.776L496.655,347.479L496.655,347.479z"/>
<rect x="209.225" y="159.37" style="fill:#F7931E;" width="225.509" height="50.971"/>
<polygon style="fill:#F15A24;" points="434.734,159.37 393.981,159.37 343.009,210.342 434.734,210.342 "/>
<g>
	<path style="fill:#E1F0FA;" d="M215.506,214.53h-6.282c-2.313,0-4.188-1.875-4.188-4.188v-6.282c0-2.313,1.875-4.188,4.188-4.188   s4.188,1.875,4.188,4.188v2.094h2.094c2.313,0,4.188,1.875,4.188,4.188C219.694,212.655,217.819,214.53,215.506,214.53z"/>
	<path style="fill:#E1F0FA;" d="M415.926,214.53H403.4c-2.313,0-4.188-1.875-4.188-4.188s1.875-4.188,4.188-4.188h12.526   c2.313,0,4.188,1.875,4.188,4.188S418.239,214.53,415.926,214.53z M390.874,214.53h-12.527c-2.313,0-4.188-1.875-4.188-4.188   s1.875-4.188,4.188-4.188h12.527c2.313,0,4.188,1.875,4.188,4.188S393.186,214.53,390.874,214.53z M365.821,214.53h-12.526   c-2.313,0-4.188-1.875-4.188-4.188s1.875-4.188,4.188-4.188h12.526c2.313,0,4.188,1.875,4.188,4.188S368.133,214.53,365.821,214.53   z M340.768,214.53h-12.526c-2.313,0-4.188-1.875-4.188-4.188s1.875-4.188,4.188-4.188h12.526c2.313,0,4.188,1.875,4.188,4.188   S343.081,214.53,340.768,214.53z M315.716,214.53H303.19c-2.313,0-4.188-1.875-4.188-4.188s1.875-4.188,4.188-4.188h12.526   c2.313,0,4.188,1.875,4.188,4.188S318.028,214.53,315.716,214.53z M290.663,214.53h-12.526c-2.313,0-4.188-1.875-4.188-4.188   s1.875-4.188,4.188-4.188h12.526c2.313,0,4.188,1.875,4.188,4.188S292.976,214.53,290.663,214.53z M265.611,214.53h-12.526   c-2.313,0-4.188-1.875-4.188-4.188s1.875-4.188,4.188-4.188h12.526c2.313,0,4.188,1.875,4.188,4.188S267.924,214.53,265.611,214.53   z M240.559,214.53h-12.526c-2.313,0-4.188-1.875-4.188-4.188s1.875-4.188,4.188-4.188h12.526c2.313,0,4.188,1.875,4.188,4.188   S242.871,214.53,240.559,214.53z"/>
	<path style="fill:#E1F0FA;" d="M434.734,214.53h-6.281c-2.313,0-4.188-1.875-4.188-4.188s1.875-4.188,4.188-4.188h2.094v-2.094   c0-2.313,1.875-4.188,4.188-4.188c2.313,0,4.188,1.875,4.188,4.188v6.282C438.922,212.655,437.046,214.53,434.734,214.53z"/>
	<path style="fill:#E1F0FA;" d="M434.734,195.446c-2.313,0-4.188-1.875-4.188-4.188v-12.803c0-2.313,1.875-4.188,4.188-4.188   c2.313,0,4.188,1.875,4.188,4.188v12.803C438.922,193.571,437.046,195.446,434.734,195.446z"/>
	<path style="fill:#E1F0FA;" d="M434.734,169.84c-2.313,0-4.188-1.875-4.188-4.188v-2.094h-2.094c-2.313,0-4.188-1.875-4.188-4.188   s1.875-4.188,4.188-4.188h6.281c2.313,0,4.188,1.875,4.188,4.188v6.282C438.922,167.965,437.046,169.84,434.734,169.84z"/>
	<path style="fill:#E1F0FA;" d="M415.926,163.558H403.4c-2.313,0-4.188-1.875-4.188-4.188s1.875-4.188,4.188-4.188h12.526   c2.313,0,4.188,1.875,4.188,4.188S418.239,163.558,415.926,163.558z M390.874,163.558h-12.526c-2.313,0-4.188-1.875-4.188-4.188   s1.875-4.188,4.188-4.188h12.526c2.313,0,4.188,1.875,4.188,4.188S393.186,163.558,390.874,163.558z M365.821,163.558h-12.526   c-2.313,0-4.188-1.875-4.188-4.188s1.875-4.188,4.188-4.188h12.526c2.313,0,4.188,1.875,4.188,4.188   S368.134,163.558,365.821,163.558z M340.769,163.558h-12.526c-2.313,0-4.188-1.875-4.188-4.188s1.875-4.188,4.188-4.188h12.526   c2.313,0,4.188,1.875,4.188,4.188S343.082,163.558,340.769,163.558z M315.717,163.558H303.19c-2.313,0-4.188-1.875-4.188-4.188   s1.875-4.188,4.188-4.188h12.526c2.313,0,4.188,1.875,4.188,4.188S318.029,163.558,315.717,163.558z M290.664,163.558h-12.526   c-2.313,0-4.188-1.875-4.188-4.188s1.875-4.188,4.188-4.188h12.526c2.313,0,4.188,1.875,4.188,4.188   S292.977,163.558,290.664,163.558z M265.611,163.558h-12.526c-2.313,0-4.188-1.875-4.188-4.188s1.875-4.188,4.188-4.188h12.526   c2.313,0,4.188,1.875,4.188,4.188S267.924,163.558,265.611,163.558z M240.559,163.558h-12.526c-2.313,0-4.188-1.875-4.188-4.188   s1.875-4.188,4.188-4.188h12.526c2.313,0,4.188,1.875,4.188,4.188S242.871,163.558,240.559,163.558z"/>
	<path style="fill:#E1F0FA;" d="M209.225,169.84c-2.313,0-4.188-1.875-4.188-4.188v-6.282c0-2.313,1.875-4.188,4.188-4.188h6.282   c2.313,0,4.188,1.875,4.188,4.188c0,2.313-1.875,4.188-4.188,4.188h-2.094v2.094C213.412,167.965,211.537,169.84,209.225,169.84z"/>
	<path style="fill:#E1F0FA;" d="M209.225,195.446c-2.313,0-4.188-1.875-4.188-4.188v-12.803c0-2.313,1.875-4.188,4.188-4.188   s4.188,1.875,4.188,4.188v12.803C213.412,193.571,211.537,195.446,209.225,195.446z"/>
	<path style="fill:#E1F0FA;" d="M362.058,240.695h-6.281c-2.313,0-4.188-1.875-4.188-4.188c0-2.313,1.875-4.188,4.188-4.188h6.281   c2.313,0,4.188,1.875,4.188,4.188C366.246,238.819,364.371,240.695,362.058,240.695z"/>
	<path style="fill:#E1F0FA;" d="M415.174,240.695h-13.279c-2.313,0-4.188-1.875-4.188-4.188c0-2.313,1.875-4.188,4.188-4.188h13.279   c2.313,0,4.188,1.875,4.188,4.188C419.361,238.819,417.486,240.695,415.174,240.695z M388.615,240.695h-13.279   c-2.313,0-4.188-1.875-4.188-4.188c0-2.313,1.875-4.188,4.188-4.188h13.279c2.313,0,4.188,1.875,4.188,4.188   C392.803,238.819,390.928,240.695,388.615,240.695z"/>
	<path style="fill:#E1F0FA;" d="M434.734,240.695h-6.281c-2.313,0-4.188-1.875-4.188-4.188c0-2.313,1.875-4.188,4.188-4.188h6.281   c2.313,0,4.188,1.875,4.188,4.188C438.922,238.819,437.046,240.695,434.734,240.695z"/>
	<path style="fill:#E1F0FA;" d="M220.782,240.695H214.5c-2.313,0-4.188-1.875-4.188-4.188c0-2.313,1.875-4.188,4.188-4.188h6.282   c2.313,0,4.188,1.875,4.188,4.188C224.969,238.819,223.094,240.695,220.782,240.695z"/>
	<path style="fill:#E1F0FA;" d="M309.492,240.695h-11.089c-2.313,0-4.188-1.875-4.188-4.188c0-2.313,1.875-4.188,4.188-4.188h11.089   c2.313,0,4.188,1.875,4.188,4.188C313.679,238.819,311.804,240.695,309.492,240.695z M287.314,240.695h-11.089   c-2.313,0-4.188-1.875-4.188-4.188c0-2.313,1.875-4.188,4.188-4.188h11.089c2.313,0,4.188,1.875,4.188,4.188   C291.502,238.819,289.627,240.695,287.314,240.695z M265.137,240.695h-11.089c-2.313,0-4.188-1.875-4.188-4.188   c0-2.313,1.875-4.188,4.188-4.188h11.089c2.313,0,4.188,1.875,4.188,4.188C269.324,238.819,267.449,240.695,265.137,240.695z    M242.959,240.695h-11.089c-2.313,0-4.188-1.875-4.188-4.188c0-2.313,1.875-4.188,4.188-4.188h11.089   c2.313,0,4.188,1.875,4.188,4.188C247.147,238.819,245.272,240.695,242.959,240.695z"/>
	<path style="fill:#E1F0FA;" d="M326.862,240.695h-6.282c-2.313,0-4.188-1.875-4.188-4.188c0-2.313,1.875-4.188,4.188-4.188h6.282   c2.313,0,4.188,1.875,4.188,4.188C331.049,238.819,329.174,240.695,326.862,240.695z"/>
	<path style="fill:#E1F0FA;" d="M220.782,265.103H214.5c-2.313,0-4.188-1.875-4.188-4.188s1.875-4.188,4.188-4.188h6.282   c2.313,0,4.188,1.875,4.188,4.188S223.094,265.103,220.782,265.103z"/>
	<path style="fill:#E1F0FA;" d="M309.492,265.103h-11.089c-2.313,0-4.188-1.875-4.188-4.188s1.875-4.188,4.188-4.188h11.089   c2.313,0,4.188,1.875,4.188,4.188C313.679,263.228,311.804,265.103,309.492,265.103z M287.314,265.103h-11.089   c-2.313,0-4.188-1.875-4.188-4.188s1.875-4.188,4.188-4.188h11.089c2.313,0,4.188,1.875,4.188,4.188   S289.627,265.103,287.314,265.103z M265.137,265.103h-11.089c-2.313,0-4.188-1.875-4.188-4.188s1.875-4.188,4.188-4.188h11.089   c2.313,0,4.188,1.875,4.188,4.188S267.449,265.103,265.137,265.103z M242.959,265.103h-11.089c-2.313,0-4.188-1.875-4.188-4.188   s1.875-4.188,4.188-4.188h11.089c2.313,0,4.188,1.875,4.188,4.188C247.147,263.228,245.272,265.103,242.959,265.103z"/>
	<path style="fill:#E1F0FA;" d="M326.862,265.103h-6.282c-2.313,0-4.188-1.875-4.188-4.188s1.875-4.188,4.188-4.188h6.282   c2.313,0,4.188,1.875,4.188,4.188S329.174,265.103,326.862,265.103z"/>
	<path style="fill:#E1F0FA;" d="M362.058,265.103h-6.281c-2.313,0-4.188-1.875-4.188-4.188s1.875-4.188,4.188-4.188h6.281   c2.313,0,4.188,1.875,4.188,4.188S364.371,265.103,362.058,265.103z"/>
	<path style="fill:#E1F0FA;" d="M415.174,265.103h-13.279c-2.313,0-4.188-1.875-4.188-4.188s1.875-4.188,4.188-4.188h13.279   c2.313,0,4.188,1.875,4.188,4.188S417.486,265.103,415.174,265.103z M388.615,265.103h-13.279c-2.313,0-4.188-1.875-4.188-4.188   s1.875-4.188,4.188-4.188h13.279c2.313,0,4.188,1.875,4.188,4.188S390.928,265.103,388.615,265.103z"/>
	<path style="fill:#E1F0FA;" d="M434.734,265.103h-6.281c-2.313,0-4.188-1.875-4.188-4.188s1.875-4.188,4.188-4.188h6.281   c2.313,0,4.188,1.875,4.188,4.188S437.046,265.103,434.734,265.103z"/>
</g>
<circle style="fill:#F9D015;" cx="179.49" cy="184.052" r="43.702"/>
<g>
	<polygon style="fill:#7693DD;" points="51.432,230.747 27.069,224.467 114.052,108.418 138.415,114.698  "/>
	<polygon style="fill:#7693DD;" points="86.27,423.166 63.883,426.675 26.357,240.978 48.744,237.469  "/>
</g>
<g>
	<circle style="fill:#473CBA;" cx="38.367" cy="234.117" r="27.733"/>
	<path style="fill:#473CBA;" d="M112.022,391.446c-30.811,0-58.231,14.467-75.876,36.967h151.751   C170.252,405.913,142.832,391.447,112.022,391.446z"/>
</g>
<g>
	<path style="fill:#E1F0FA;" d="M189.241,437.306H39.013c-5.109,0-9.25-4.141-9.25-9.25l0,0c0-5.109,4.141-9.25,9.25-9.25h150.228   c5.109,0,9.25,4.141,9.25,9.25l0,0C198.491,433.164,194.35,437.306,189.241,437.306z"/>
	<polygon style="fill:#E1F0FA;" points="114.649,239.096 109.246,130.201 170.354,96.225 257.389,159.73  "/>
</g>
<polygon style="fill:#BFD6E2;" points="257.389,159.73 216.213,129.686 114.278,231.622 114.649,239.095 "/>
<path style="fill:#473CBA;" d="M110.594,137.9c-10.257-18.11-3.889-41.107,14.222-51.364s41.108-3.891,51.365,14.22L110.594,137.9z"/>
<path style="fill:#4B31AA;" d="M259.549,156.771l-80.909-59.036c-11.568-18.9-36.201-25.389-55.63-14.388  c-13.081,7.409-20.576,20.923-20.948,34.958L38.782,202.73c-0.139-0.002-0.276-0.011-0.415-0.011  c-17.313,0-31.398,14.085-31.398,31.398c0,13.365,8.397,24.798,20.189,29.321l28.618,141.616  c-4.399,3.002-8.571,6.373-12.483,10.087h-4.28c-7.121,0-12.915,5.793-12.915,12.914s5.794,12.915,12.915,12.915h150.228  c7.121,0,12.914-5.794,12.914-12.915s-5.793-12.914-12.914-12.914h-8.492c-18.463-17.53-42.811-27.36-68.728-27.36  c-9.746,0-19.27,1.39-28.343,4.056L56.92,259.427c7.782-5.72,12.845-14.932,12.845-25.309c0-5.806-1.59-11.246-4.349-15.916  l41.763-55.719l3.81,76.795c0.063,1.265,0.774,2.407,1.881,3.021c0.553,0.308,1.167,0.461,1.779,0.461  c0.613,0,1.227-0.154,1.781-0.462l35.515-19.747c8.203,5.883,17.868,8.845,27.545,8.845c12.129,0,24.259-4.617,33.492-13.851  c10.014-10.014,14.573-23.431,13.724-36.562l32.464-18.05c1.092-0.607,1.799-1.73,1.876-2.977  C261.123,158.708,260.558,157.507,259.549,156.771z M126.622,89.724c5.283-2.991,11.032-4.412,16.709-4.412  c10.709,0,21.155,5.056,27.686,14.157l-58.87,33.34C105.344,117.076,111.375,98.359,126.622,89.724z M194.827,428.056  c0,3.08-2.506,5.586-5.585,5.586H39.013c-3.08,0-5.586-2.506-5.586-5.586c0-3.079,2.506-5.585,5.586-5.585h150.228  C192.321,422.47,194.827,424.976,194.827,428.056z M169.571,415.142H54.441c16.209-12.899,36.327-20.031,57.58-20.031  C133.267,395.11,153.367,402.252,169.571,415.142z M76.676,394.186c-4.927,1.856-9.695,4.098-14.263,6.713L35.017,265.334  c1.101,0.117,2.218,0.181,3.35,0.181c4.186,0,8.181-0.83,11.836-2.324L76.676,394.186z M38.367,258.186  c-13.272,0-24.07-10.797-24.07-24.069c0-13.272,10.797-24.07,24.07-24.07c13.272,0,24.069,10.797,24.069,24.07  C62.436,247.389,51.639,258.186,38.367,258.186z M60.783,212.162c-3.749-3.827-8.466-6.697-13.752-8.217l56.164-74.931  c0.632,2.627,1.531,5.221,2.708,7.747l0.708,14.262L60.783,212.162z M207.801,212.363c-13.166,13.164-33.283,15.21-48.628,6.169  l60.316-33.536C219.257,194.932,215.366,204.797,207.801,212.363z M118.016,233.031l-4.59-92.524l62.72-35.52l74.454,54.326  L118.016,233.031z"/>
<g>
</g>
<g>
</g>
<g>
</g>
<g>
</g>
<g>
</g>
<g>
</g>
<g>
</g>
<g>
</g>
<g>
</g>
<g>
</g>
<g>
</g>
<g>
</g>
<g>
</g>
<g>
</g>
<g>
</g>
</svg>