<?xml version="1.0" encoding="windows-1252"?>
<!-- Generator: Adobe Illustrator 19.0.0, SVG Export Plug-In . SVG Version: 6.00 Build 0)  -->
<svg xmlns="http://www.w3.org/2000/svg" xmlns:xlink="http://www.w3.org/1999/xlink" version="1.1" id="Capa_1" x="0px" y="0px" viewBox="0 0 512 512" style="enable-background:new 0 0 512 512;" xml:space="preserve">
<path style="fill:#79A1E8;" d="M75.443,95.862c-36.959,6.971-91.194,80.701-48,152s188.768,26.668,218,85.467  c29.232,58.799,185.322,143.886,219.545-29.467c23.927-121.199,50.042-185.474-9.156-247.556  c-78.876-82.719-170.844-64.444-238.844-8.444C154.754,99.114,130.525,85.473,75.443,95.862z"/>
<path style="fill:#473CBA;" d="M488.599,373.327h-179.09c-9.715,0-17.59-7.875-17.59-17.59V176.073c0-9.715,7.875-17.59,17.59-17.59  h179.09c9.715,0,17.59,7.875,17.59,17.59v179.664C506.189,365.452,498.313,373.327,488.599,373.327z"/>
<path style="fill:#D7ECF9;" d="M476.695,373.327h-179.09c-9.715,0-17.59-7.875-17.59-17.59V176.073c0-9.715,7.875-17.59,17.59-17.59  h179.09c9.715,0,17.59,7.875,17.59,17.59v179.664C494.285,365.452,486.409,373.327,476.695,373.327z"/>
<path style="fill:#B3D4E5;" d="M476.695,158.482h-8.068L280.014,347.095v8.642c0,9.715,7.875,17.59,17.59,17.59h179.09  c9.715,0,17.59-7.875,17.59-17.59V176.073C494.285,166.358,486.409,158.482,476.695,158.482z"/>
<path style="fill:#F9D015;" d="M494.285,176.073c0-9.715-7.875-17.59-17.59-17.59h-179.09c-9.715,0-17.59,7.875-17.59,17.59v11.712  h214.271V176.073z"/>
<path style="fill:#FBB03B;" d="M494.285,176.073c0-9.715-7.875-17.59-17.59-17.59h-8.068l-29.303,29.303h54.961V176.073z"/>
<g>
	<path style="fill:#4B31AA;" d="M488.599,154.482h-11.904H336.234h-38.629c-11.905,0-21.591,9.686-21.591,21.591v11.712v167.952   c0,11.904,9.686,21.59,21.591,21.59h32.974h146.116h11.904c11.904,0,21.59-9.686,21.59-21.59V176.073   C510.189,164.168,500.503,154.482,488.599,154.482z M284.014,176.073c0-7.494,6.097-13.591,13.591-13.591h179.09   c7.494,0,13.591,6.097,13.591,13.591v7.712H284.014V176.073z M329.705,369.327h-32.1c-7.494,0-13.591-6.097-13.591-13.59V191.785   h206.271v163.952c0,7.493-6.097,13.59-13.591,13.59L329.705,369.327L329.705,369.327z M502.189,355.737   c0,5.393-3.166,10.049-7.731,12.243c2.408-3.482,3.827-7.698,3.827-12.243V187.785v-11.712c0-4.545-1.419-8.761-3.828-12.244   c4.564,2.194,7.731,6.85,7.731,12.244V355.737z"/>
	<circle style="fill:#4B31AA;" cx="300.845" cy="173.362" r="2.976"/>
	<path style="fill:#4B31AA;" d="M300.846,180.339c-3.847,0-6.976-3.13-6.976-6.977c0-3.847,3.129-6.976,6.976-6.976   c3.847,0,6.977,3.129,6.977,6.976S304.693,180.339,300.846,180.339z M300.846,172.339c-0.564,0-1.023,0.459-1.023,1.023   s0.459,1.024,1.023,1.024c0.565,0,1.024-0.46,1.024-1.024C301.87,172.798,301.41,172.339,300.846,172.339z"/>
	<circle style="fill:#4B31AA;" cx="318.702" cy="173.362" r="2.976"/>
	<path style="fill:#4B31AA;" d="M318.702,180.339c-3.847,0-6.977-3.13-6.977-6.977c0-3.847,3.13-6.976,6.977-6.976   c3.847,0,6.976,3.129,6.976,6.976S322.549,180.339,318.702,180.339z M318.702,172.339c-0.564,0-1.024,0.459-1.024,1.023   s0.46,1.024,1.024,1.024c0.565,0,1.023-0.46,1.023-1.024C319.726,172.798,319.267,172.339,318.702,172.339z"/>
	<circle style="fill:#4B31AA;" cx="336.558" cy="173.362" r="2.976"/>
	<path style="fill:#4B31AA;" d="M336.558,180.339c-3.847,0-6.976-3.13-6.976-6.977c0-3.847,3.129-6.976,6.976-6.976   c3.847,0,6.977,3.129,6.977,6.976C343.534,177.209,340.404,180.339,336.558,180.339z M336.558,172.339   c-0.564,0-1.023,0.459-1.023,1.023s0.459,1.024,1.023,1.024c0.565,0,1.024-0.46,1.024-1.024   C337.582,172.798,337.122,172.339,336.558,172.339z"/>
</g>
<path style="fill:#473CBA;" d="M214.395,373.327H35.306c-9.715,0-17.59-7.875-17.59-17.59V176.073c0-9.715,7.875-17.59,17.59-17.59  h179.09c9.715,0,17.59,7.875,17.59,17.59v179.664C231.986,365.452,224.11,373.327,214.395,373.327z"/>
<path style="fill:#4B31AA;" d="M214.396,377.327H35.306c-11.905,0-21.591-9.686-21.591-21.59V176.073  c0-11.905,9.685-21.591,21.591-21.591h179.09c11.904,0,21.59,9.686,21.59,21.591v179.664  C235.986,367.642,226.3,377.327,214.396,377.327z M35.306,162.482c-7.494,0-13.591,6.097-13.591,13.591v179.664  c0,7.493,6.097,13.59,13.591,13.59h179.09c7.493,0,13.59-6.097,13.59-13.59V176.073c0-7.494-6.097-13.591-13.59-13.591H35.306z"/>
<path style="fill:#D7ECF9;" d="M202.492,373.327H23.402c-9.715,0-17.59-7.875-17.59-17.59V176.073c0-9.715,7.875-17.59,17.59-17.59  h179.09c9.715,0,17.59,7.875,17.59,17.59v179.664C220.082,365.452,212.206,373.327,202.492,373.327z"/>
<path style="fill:#B3D4E5;" d="M213.45,162.326L9.41,366.366c3.213,4.223,8.276,6.961,13.992,6.961h179.09  c9.715,0,17.59-7.875,17.59-17.59V176.073C220.082,170.504,217.487,165.549,213.45,162.326z"/>
<path style="fill:#F9D015;" d="M220.082,176.073c0-9.715-7.875-17.59-17.59-17.59H23.402c-9.715,0-17.59,7.875-17.59,17.59v11.712  h214.271V176.073z"/>
<g>
	<path style="fill:#4B31AA;" d="M202.491,154.482H23.402c-11.904,0-21.59,9.685-21.59,21.591v11.712v167.952   c0,11.904,9.686,21.59,21.59,21.59h179.09c11.905,0,21.591-9.686,21.591-21.59V187.785v-11.712   C224.082,164.168,214.397,154.482,202.491,154.482z M9.812,176.073c0-7.494,6.097-13.591,13.59-13.591h179.09   c7.494,0,13.591,6.097,13.591,13.591v7.712H9.812V176.073z M202.491,369.327H23.402c-7.493,0-13.59-6.097-13.59-13.59V191.785   h206.271v163.952C216.082,363.23,209.985,369.327,202.491,369.327z"/>
	<path style="fill:#4B31AA;" d="M26.643,166.387c-3.847,0-6.976,3.129-6.976,6.976c0,3.847,3.129,6.977,6.976,6.977   s6.977-3.13,6.977-6.977C33.619,169.516,30.489,166.387,26.643,166.387z"/>
	<path style="fill:#4B31AA;" d="M44.499,166.387c-3.847,0-6.977,3.129-6.977,6.976c0,3.847,3.13,6.977,6.977,6.977   s6.976-3.13,6.976-6.977C51.475,169.516,48.346,166.387,44.499,166.387z"/>
	<path style="fill:#4B31AA;" d="M62.355,166.387c-3.847,0-6.976,3.129-6.976,6.976c0,3.847,3.129,6.977,6.976,6.977   s6.977-3.13,6.977-6.977C69.331,169.516,66.201,166.387,62.355,166.387z"/>
</g>
<path style="fill:#473CBA;" d="M375.82,402.569H157.135c-11.863,0-21.479-9.617-21.479-21.479V161.703  c0-11.863,9.617-21.479,21.479-21.479h218.686c11.863,0,21.479,9.617,21.479,21.479V381.09  C397.3,392.952,387.683,402.569,375.82,402.569z"/>
<path style="fill:#FFFFFF;" d="M361.285,402.569H142.599c-11.863,0-21.479-9.617-21.479-21.479V161.703  c0-11.863,9.617-21.479,21.479-21.479h218.685c11.863,0,21.479,9.617,21.479,21.479V381.09  C382.764,392.952,373.147,402.569,361.285,402.569z"/>
<path style="fill:#CFDDF7;" d="M361.285,140.224h-13.733L121.12,366.656v14.434c0,11.863,9.617,21.479,21.479,21.479h218.685  c11.863,0,21.479-9.616,21.479-21.479V161.703C382.764,149.84,373.147,140.224,361.285,140.224z"/>
<path style="fill:#F7931E;" d="M382.764,161.703c0-11.863-9.617-21.479-21.479-21.479H142.599c-11.863,0-21.479,9.617-21.479,21.479  v14.302h261.644V161.703z"/>
<path style="fill:#E07E1E;" d="M382.764,161.703c0-11.863-9.617-21.48-21.479-21.48h-13.733l-35.781,35.781h70.993L382.764,161.703  L382.764,161.703z"/>
<g>
	<path style="fill:#4B31AA;" d="M375.82,136.224H142.599c-14.049,0-25.478,11.43-25.478,25.479v14.302V381.09   c0,14.05,11.43,25.479,25.478,25.479h233.222c14.05,0,25.48-11.43,25.48-25.479V161.703   C401.3,147.653,389.87,136.224,375.82,136.224z M125.12,161.703c0-9.639,7.841-17.479,17.479-17.479h27.275h191.411   c9.639,0,17.479,7.841,17.479,17.479v10.302H125.12V161.703z M142.599,398.569c-9.638,0-17.479-7.841-17.479-17.479V180.005   h253.644V381.09c0,9.639-7.841,17.479-17.479,17.479L142.599,398.569L142.599,398.569z M393.3,381.09   c0,8.064-5.496,14.851-12.934,16.859c3.977-4.496,6.398-10.399,6.398-16.859V176.005v-14.302c0-6.46-2.421-12.363-6.398-16.859   c7.438,2.008,12.934,8.795,12.934,16.859V381.09z"/>
	<circle style="fill:#4B31AA;" cx="146.557" cy="158.394" r="3.634"/>
	<path style="fill:#4B31AA;" d="M146.558,166.027c-4.209,0-7.634-3.425-7.634-7.634c0-4.209,3.425-7.634,7.634-7.634   c4.209,0,7.634,3.425,7.634,7.634C154.192,162.603,150.767,166.027,146.558,166.027z M146.558,158.027   c-0.202,0-0.366,0.164-0.366,0.366c0,0.202,0.164,0.366,0.366,0.366c0.202,0,0.366-0.164,0.366-0.366   C146.924,158.191,146.76,158.027,146.558,158.027z"/>
	<circle style="fill:#4B31AA;" cx="168.361" cy="158.394" r="3.634"/>
	<path style="fill:#4B31AA;" d="M168.361,166.027c-4.209,0-7.634-3.425-7.634-7.634c0-4.209,3.425-7.634,7.634-7.634   c4.209,0,7.634,3.425,7.634,7.634C175.995,162.603,172.571,166.027,168.361,166.027z M168.361,158.027   c-0.202,0-0.366,0.164-0.366,0.366c0,0.202,0.164,0.366,0.366,0.366c0.202,0,0.366-0.164,0.366-0.366   C168.728,158.191,168.564,158.027,168.361,158.027z"/>
	<circle style="fill:#4B31AA;" cx="190.164" cy="158.394" r="3.634"/>
	<path style="fill:#4B31AA;" d="M190.165,166.027c-4.209,0-7.634-3.425-7.634-7.634c0-4.209,3.425-7.634,7.634-7.634   s7.634,3.425,7.634,7.634C197.799,162.603,194.374,166.027,190.165,166.027z M190.165,158.027c-0.202,0-0.366,0.164-0.366,0.366   c0,0.202,0.164,0.366,0.366,0.366c0.202,0,0.366-0.164,0.366-0.366C190.531,158.191,190.367,158.027,190.165,158.027z"/>
</g>
<g>
	<ellipse style="fill:#473CBA;" cx="259.21" cy="505.744" rx="130.001" ry="6.256"/>
	<ellipse style="fill:#473CBA;" cx="380.004" cy="447.752" rx="117.31" ry="5.645"/>
	<ellipse style="fill:#473CBA;" cx="128.493" cy="447.752" rx="117.31" ry="5.645"/>
</g>
<path style="fill:#D7ECF9;" d="M332.768,299.526c0-44.639-36.187-80.826-80.826-80.826s-80.826,36.187-80.826,80.826  c0,23.045,9.66,43.82,25.133,58.544h111.387C323.108,343.346,332.768,322.571,332.768,299.526z"/>
<path style="fill:#7693DD;" d="M316.726,257.693l-99.358,99.358h87.904c14.94-14.217,24.267-34.277,24.267-56.528  C329.539,284.703,324.817,269.991,316.726,257.693z"/>
<path style="fill:#D7ECF9;" d="M251.942,218.7c-44.639,0-80.826,36.187-80.826,80.826c0,23.045,9.66,43.82,25.133,58.544h20.348  l102.902-102.901C305.049,233.207,280.196,218.7,251.942,218.7z"/>
<path style="fill:#FBB03B;" d="M180.22,336.787c4.15,7.961,9.583,15.148,16.028,21.283h111.387  c6.446-6.134,11.878-13.321,16.028-21.283H180.22z"/>
<path style="fill:#F15A24;" d="M237.936,318.246c2.22-6.771,34.159-62.803,34.159-62.803s-7.425,64.061-9.644,70.833  c-2.22,6.771-9.507,10.463-16.276,8.246C239.405,332.304,235.717,325.017,237.936,318.246z"/>
<g>
	<path style="fill:#4B31AA;" d="M322.95,253.173c-12.464-19.041-31.889-32.139-53.613-36.672c-0.215-0.045-0.43-0.089-0.646-0.132   c-1.237-0.248-2.481-0.475-3.733-0.669c-0.144-0.022-0.289-0.04-0.433-0.061c-1.148-0.171-2.302-0.316-3.461-0.441   c-0.237-0.025-0.472-0.054-0.709-0.078c-1.234-0.122-2.473-0.215-3.718-0.284c-0.265-0.015-0.532-0.025-0.798-0.037   c-1.295-0.059-2.593-0.099-3.897-0.099c-46.773,0-84.825,38.053-84.825,84.826c0,14.647,3.659,28.663,10.555,41.067   c4.138,7.442,9.441,14.305,15.819,20.375c0.744,0.708,1.731,1.103,2.758,1.103h111.387c1.026,0,2.014-0.395,2.758-1.103   c17.008-16.186,26.375-38.006,26.375-61.441C336.768,282.514,331.637,266.446,322.95,253.173z M321.237,332.787h-57.841   c1.224-1.532,2.209-3.295,2.854-5.265c0.657-2.004,1.687-8.254,2.839-16.291l49.626-49.625   c6.384,11.197,10.052,24.134,10.052,37.92C328.768,311.267,326.166,322.557,321.237,332.787z M242.253,326.285   c-1.073-2.121-1.257-4.533-0.517-6.793c1.175-3.584,12.882-24.902,24.031-44.744c-2.76,22.589-5.943,46.698-7.118,50.282   c-1.529,4.664-6.569,7.222-11.23,5.689C245.161,329.98,243.327,328.405,242.253,326.285z M251.942,222.7   c1.195,0,2.383,0.036,3.565,0.09c0.207,0.01,0.414,0.017,0.621,0.028c1.126,0.061,2.245,0.147,3.358,0.256   c0.228,0.022,0.455,0.047,0.683,0.071c1.137,0.122,2.268,0.261,3.39,0.432c0.088,0.013,0.175,0.03,0.263,0.043   c1.115,0.174,2.222,0.373,3.32,0.594c0.131,0.027,0.263,0.051,0.395,0.078c1.151,0.238,2.293,0.503,3.425,0.792   c0.109,0.028,0.218,0.056,0.327,0.085c17.558,4.571,32.677,15.222,43.003,29.549l-43.41,43.41   c2.385-18.151,4.755-38.48,5.189-42.225c0.219-1.889-0.922-3.67-2.728-4.262c-1.805-0.593-3.779,0.169-4.721,1.82   c-3.29,5.771-32.206,56.583-34.485,63.537v0.001c-1.406,4.29-1.058,8.87,0.981,12.898c0.442,0.873,0.968,1.684,1.54,2.453   l-0.435,0.436h-53.574c-4.928-10.23-7.53-21.52-7.53-33.261C175.116,257.164,209.58,222.7,251.942,222.7z M306.013,354.069H197.87   c-4.128-4.087-7.712-8.517-10.762-13.282h129.628c-0.31,0.486-0.649,0.952-0.97,1.43c0.023-0.002,0.047-0.004,0.07-0.005   C312.997,346.431,309.717,350.403,306.013,354.069z"/>
	<path style="fill:#4B31AA;" d="M252.182,246.234c-2.209,0-4-1.791-4-4v-12.569c0-2.209,1.791-4,4-4c2.209,0,4,1.791,4,4v12.569   C256.182,244.443,254.391,246.234,252.182,246.234z"/>
	<path style="fill:#4B31AA;" d="M215.397,263.259c-1.037,0-2.074-0.401-2.857-1.201l-8.796-8.979   c-1.546-1.578-1.52-4.11,0.059-5.656c1.577-1.546,4.11-1.52,5.656,0.059l8.796,8.979c1.546,1.578,1.52,4.11-0.059,5.656   C217.417,262.879,216.406,263.259,215.397,263.259z"/>
	<path style="fill:#4B31AA;" d="M196.976,300.055c-0.37,0-0.746-0.052-1.119-0.16l-12.074-3.513   c-2.121-0.617-3.341-2.837-2.724-4.958s2.838-3.342,4.958-2.724l12.074,3.513c2.121,0.617,3.341,2.837,2.724,4.958   C200.306,298.919,198.709,300.055,196.976,300.055z"/>
	<path style="fill:#4B31AA;" d="M288.487,263.259c-1.01,0-2.02-0.38-2.799-1.143c-1.578-1.546-1.604-4.078-0.059-5.656l8.796-8.979   c1.546-1.577,4.079-1.604,5.656-0.059c1.578,1.546,1.604,4.078,0.059,5.656l-8.796,8.979   C290.562,262.857,289.525,263.259,288.487,263.259z"/>
	<path style="fill:#4B31AA;" d="M251.175,109.25c-2.209,0-4-1.791-4-4V82c0-2.209,1.791-4,4-4s4,1.791,4,4v23.25   C255.175,107.459,253.384,109.25,251.175,109.25z"/>
	<path style="fill:#4B31AA;" d="M212.911,117c-1.248,0-2.479-0.583-3.259-1.677l-13.139-18.417   c-1.283-1.799-0.865-4.297,0.933-5.579c1.796-1.284,4.295-0.867,5.579,0.933l13.139,18.417c1.283,1.799,0.865,4.297-0.933,5.579   C214.528,116.759,213.716,117,212.911,117z"/>
	<path style="fill:#4B31AA;" d="M289.44,117c-0.805,0-1.616-0.241-2.32-0.744c-1.798-1.282-2.216-3.78-0.933-5.579l13.139-18.417   c1.283-1.8,3.783-2.217,5.579-0.933c1.798,1.282,2.216,3.78,0.933,5.579l-13.139,18.417C291.918,116.417,290.688,117,289.44,117z"/>
</g>
<g>
</g>
<g>
</g>
<g>
</g>
<g>
</g>
<g>
</g>
<g>
</g>
<g>
</g>
<g>
</g>
<g>
</g>
<g>
</g>
<g>
</g>
<g>
</g>
<g>
</g>
<g>
</g>
<g>
</g>
</svg>