<svg width="48" height="48" viewBox="0 0 48 48" fill="none" xmlns="http://www.w3.org/2000/svg">
<rect opacity="0.05" width="48" height="48" fill="#0D0C0E"/>
<circle cx="24" cy="24" r="17" fill="white"/>
<g clip-path="url(#clip0_93_718)">
<path d="M20.25 15H18C17.2044 15 16.4413 15.3161 15.8787 15.8787C15.3161 16.4413 15 17.2044 15 18V20.25C15 21.0456 15.3161 21.8087 15.8787 22.3713C16.4413 22.9339 17.2044 23.25 18 23.25H20.25C21.0456 23.25 21.8087 22.9339 22.3713 22.3713C22.9339 21.8087 23.25 21.0456 23.25 20.25V18C23.25 17.2044 22.9339 16.4413 22.3713 15.8787C21.8087 15.3161 21.0456 15 20.25 15ZM21.75 20.25C21.75 20.6478 21.592 21.0294 21.3107 21.3107C21.0294 21.592 20.6478 21.75 20.25 21.75H18C17.6022 21.75 17.2206 21.592 16.9393 21.3107C16.658 21.0294 16.5 20.6478 16.5 20.25V18C16.5 17.6022 16.658 17.2206 16.9393 16.9393C17.2206 16.658 17.6022 16.5 18 16.5H20.25C20.6478 16.5 21.0294 16.658 21.3107 16.9393C21.592 17.2206 21.75 17.6022 21.75 18V20.25Z" fill="#0D0C0E"/>
<path d="M20.25 24.75H18C17.2044 24.75 16.4413 25.0661 15.8787 25.6287C15.3161 26.1913 15 26.9544 15 27.75V30C15 30.7956 15.3161 31.5587 15.8787 32.1213C16.4413 32.6839 17.2044 33 18 33H20.25C21.0456 33 21.8087 32.6839 22.3713 32.1213C22.9339 31.5587 23.25 30.7956 23.25 30V27.75C23.25 26.9544 22.9339 26.1913 22.3713 25.6287C21.8087 25.0661 21.0456 24.75 20.25 24.75ZM21.75 30C21.75 30.3978 21.592 30.7794 21.3107 31.0607C21.0294 31.342 20.6478 31.5 20.25 31.5H18C17.6022 31.5 17.2206 31.342 16.9393 31.0607C16.658 30.7794 16.5 30.3978 16.5 30V27.75C16.5 27.3522 16.658 26.9706 16.9393 26.6893C17.2206 26.408 17.6022 26.25 18 26.25H20.25C20.6478 26.25 21.0294 26.408 21.3107 26.6893C21.592 26.9706 21.75 27.3522 21.75 27.75V30Z" fill="#0D0C0E"/>
<path d="M30 24.75H27.75C26.9544 24.75 26.1913 25.0661 25.6287 25.6287C25.0661 26.1913 24.75 26.9544 24.75 27.75V30C24.75 30.7956 25.0661 31.5587 25.6287 32.1213C26.1913 32.6839 26.9544 33 27.75 33H30C30.7956 33 31.5587 32.6839 32.1213 32.1213C32.6839 31.5587 33 30.7956 33 30V27.75C33 26.9544 32.6839 26.1913 32.1213 25.6287C31.5587 25.0661 30.7956 24.75 30 24.75ZM31.5 30C31.5 30.3978 31.342 30.7794 31.0607 31.0607C30.7794 31.342 30.3978 31.5 30 31.5H27.75C27.3522 31.5 26.9706 31.342 26.6893 31.0607C26.408 30.7794 26.25 30.3978 26.25 30V27.75C26.25 27.3522 26.408 26.9706 26.6893 26.6893C26.9706 26.408 27.3522 26.25 27.75 26.25H30C30.3978 26.25 30.7794 26.408 31.0607 26.6893C31.342 26.9706 31.5 27.3522 31.5 27.75V30Z" fill="#0D0C0E"/>
<path d="M25.5 20.25H27.75V22.5C27.75 22.6989 27.829 22.8897 27.9697 23.0303C28.1103 23.171 28.3011 23.25 28.5 23.25C28.6989 23.25 28.8897 23.171 29.0303 23.0303C29.171 22.8897 29.25 22.6989 29.25 22.5V20.25H31.5C31.6989 20.25 31.8897 20.171 32.0303 20.0303C32.171 19.8897 32.25 19.6989 32.25 19.5C32.25 19.3011 32.171 19.1103 32.0303 18.9697C31.8897 18.829 31.6989 18.75 31.5 18.75H29.25V16.5C29.25 16.3011 29.171 16.1103 29.0303 15.9697C28.8897 15.829 28.6989 15.75 28.5 15.75C28.3011 15.75 28.1103 15.829 27.9697 15.9697C27.829 16.1103 27.75 16.3011 27.75 16.5V18.75H25.5C25.3011 18.75 25.1103 18.829 24.9697 18.9697C24.829 19.1103 24.75 19.3011 24.75 19.5C24.75 19.6989 24.829 19.8897 24.9697 20.0303C25.1103 20.171 25.3011 20.25 25.5 20.25Z" fill="#0D0C0E"/>
</g>
<defs>
<clipPath id="clip0_93_718">
<rect width="18" height="18" fill="white" transform="translate(15 15)"/>
</clipPath>
</defs>
</svg>
